<?xml version="1.0" encoding="UTF-8"?>
<svg width="13px" height="8px" viewBox="0 0 13 8" version="1.1" xmlns="http://www.w3.org/2000/svg" xmlns:xlink="http://www.w3.org/1999/xlink">
    <!-- Generator: Sketch 60 (88103) - https://sketch.com -->
    <title>arrow-right-bold备份 4@2x</title>
    <desc>Created with Sketch.</desc>
    <g id="页面-1" stroke="none" stroke-width="1" fill="none" fill-rule="evenodd">
        <g id="icon" transform="translate(-189.000000, -1859.000000)" fill="#F7B500" fill-rule="nonzero">
            <g id="arrow-right-bold备份-4" transform="translate(196.000000, 1863.500000) scale(-1, 1) rotate(90.000000) translate(-196.000000, -1863.500000) translate(192.000000, 1857.000000)">
                <path d="M7.23350085,5.63360529 L1.23389247,0.300620064 C0.967243205,0.0673019652 0.533938161,0.0673019652 0.300620062,0.367282369 C0.0673019636,0.633931635 0.0673019636,1.06723668 0.367282383,1.30055479 L5.80026108,6.13357265 L0.367282383,10.9665905 C0.100633116,11.1999086 0.0673019636,11.6332137 0.300620062,11.8998629 C0.433944688,12.0331876 0.600600481,12.133181 0.800587427,12.133181 C0.967243221,12.133181 1.10056785,12.0665187 1.23389247,11.9665252 L7.23350085,6.63354002 C7.36682548,6.50021539 7.46681897,6.3335596 7.46681897,6.13357265 C7.46681897,5.93358571 7.40015665,5.76692991 7.23350085,5.63360529 Z" id="路径"></path>
            </g>
        </g>
    </g>
</svg>