<?xml version="1.0" encoding="UTF-8"?>
<svg width="16px" height="16px" viewBox="0 0 16 16" version="1.1" xmlns="http://www.w3.org/2000/svg" xmlns:xlink="http://www.w3.org/1999/xlink">
    <title>编组@2x</title>
    <g id="弹窗设计" stroke="none" stroke-width="1" fill="none" fill-rule="evenodd">
        <g id="DAO-解抵押完成" transform="translate(-770.000000, -525.000000)" fill="#FE9C02" fill-rule="nonzero">
            <g id="编组-6" transform="translate(660.000000, 52.000000)">
                <g id="编组-7" transform="translate(110.000000, 399.000000)">
                    <g id="编组-3" transform="translate(0.000000, 71.000000)">
                        <g id="编组" transform="translate(0.000000, 3.000000)">
                            <path d="M7.99994482,-1.63471942e-16 C3.58176534,-1.63471942e-16 0,3.58172856 0,7.99994482 C0,12.4182346 3.58174695,16 7.99994482,16 C12.418253,16 16,12.418253 16,7.99994482 C16,3.58172855 12.4182346,-1.63471942e-16 7.99994482,-1.63471942e-16 L7.99994482,-1.63471942e-16 Z M11.2715702,12.857713 L8.01443837,11.351671 L4.7571962,12.857713 L5.20377421,9.33870403 L2.74421086,6.75061155 L6.27734555,6.0815906 L8.01441998,2.97625483 L9.7520278,6.0815906 L13.2845371,6.75061155 L10.8250841,9.33870403 L11.2715702,12.857713 L11.2715702,12.857713 Z" id="形状"></path>
                        </g>
                    </g>
                </g>
            </g>
        </g>
    </g>
</svg>