<?xml version="1.0" encoding="UTF-8"?>
<svg width="62px" height="62px" viewBox="0 0 62 62" version="1.1" xmlns="http://www.w3.org/2000/svg" xmlns:xlink="http://www.w3.org/1999/xlink">
    <!-- Generator: Sketch 60 (88103) - https://sketch.com -->
    <title>github</title>
    <desc>Created with Sketch.</desc>
    <g id="官网设计" stroke="none" stroke-width="1" fill="none" fill-rule="evenodd">
        <g id="StarBlkock-DAO手机端" transform="translate(-355.000000, -3258.000000)">
            <g id="github" transform="translate(356.000000, 3259.000000)">
                <g id="编组-3备份" stroke="#F7B500">
                    <ellipse id="椭圆形" cx="29.9476328" cy="29.8951962" rx="29.9476328" ry="29.8951962"></ellipse>
                </g>
                <g id="github-2" transform="translate(14.000000, 13.000000)" fill="#F7B500" fill-rule="nonzero">
                    <path d="M28.7699111,5.79546231 C30.1457693,3.28409911 28.5733488,0 28.5733488,0 C25.0354221,0 22.4802678,2.31816974 22.4802678,2.31816974 C21.1044095,1.54543384 16.5837489,1.54543384 16.5837489,1.54543384 C16.5837489,1.54543384 12.0630884,1.54543384 10.6872301,2.31816974 C10.6872301,2.31816974 8.1320758,0 4.59414904,0 C4.59414904,0 3.02172857,3.28409911 4.39758682,5.79546231 C4.39758682,5.79546231 1.2527845,8.69321245 2.43208054,14.8750237 C3.54026811,20.6840388 8.72168519,22.2159578 12.0630497,22.2159578 C12.0630497,22.2159578 10.6871915,23.3750427 10.8837537,25.3068635 C10.8837537,25.3068635 8.91824741,26.4659483 6.95274113,25.6932124 C4.98723485,24.9204765 4.00446239,22.9886558 4.00446239,22.9886558 C4.00446239,22.9886558 2.03895611,20.4772926 0.0734498326,21.443184 C0.0734498326,21.443184 -0.516198189,22.0227264 1.64587031,22.9886558 C1.64587031,22.9886558 3.21829078,25.3068255 3.8079388,26.6591039 C4.39758682,28.0113822 7.54238915,29.1704671 10.6872301,28.3977312 L10.6872301,32.8409151 C10.6872301,32.8409151 10.6872301,33.2272641 9.90101986,33.4204576 C9.11480962,33.613651 9.11480962,34 9.50793405,34 L23.6595638,34 C24.0526496,34 24.0526496,33.613651 23.266478,33.4204576 C22.4802678,33.2272641 22.4802678,32.8409151 22.4802678,32.8409151 L22.4802678,28.3977312 C22.4802678,28.3977312 22.4975331,26.0808522 22.4802678,25.3068255 C22.4370465,23.3658557 21.1044095,22.2159199 21.1044095,22.2159199 C24.4457741,22.2159199 29.6271911,20.6840008 30.7353787,14.8749858 C31.9147134,8.69321245 28.7699111,5.79546231 28.7699111,5.79546231 Z" id="路径"></path>
                </g>
            </g>
        </g>
    </g>
</svg>