<?xml version="1.0" encoding="UTF-8"?>
<svg width="38px" height="38px" viewBox="0 0 38 38" version="1.1" xmlns="http://www.w3.org/2000/svg" xmlns:xlink="http://www.w3.org/1999/xlink">
    <!-- Generator: Sketch 60 (88103) - https://sketch.com -->
    <title>编组 3备份 2</title>
    <desc>Created with Sketch.</desc>
    <g id="官网设计" stroke="none" stroke-width="1" fill="none" fill-rule="evenodd">
        <g id="StarBlkock-初版官网" transform="translate(-1389.000000, -10077.000000)">
            <g id="底部信息栏目" transform="translate(1.000000, 10052.000000)">
                <g id="编组-5备份" transform="translate(1389.000000, 26.000000)">
                    <g id="编组-3备份-2">
                        <g id="编组-62">
                            <ellipse id="椭圆形" stroke="#F7B500" cx="17.9685797" cy="17.9371177" rx="17.9685797" ry="17.9371177"></ellipse>
                            <path d="M27.2,8 L8.8,8 C8.3575,8 8,8.3575 8,8.8 L8,27.2 C8,27.6425 8.3575,28 8.8,28 L27.2,28 C27.6425,28 28,27.6425 28,27.2 L28,8.8 C28,8.3575 27.6425,8 27.2,8 Z M24.4,13.1425 L23.38,14.12 C23.29,14.1875 23.2475,14.2975 23.265,14.405 L23.265,21.5975 C23.2475,21.7075 23.29,21.8175 23.38,21.8825 L24.38,22.86 L24.38,23.0775 L19.36,23.0775 L19.36,22.87 L20.3925,21.8675 C20.495,21.765 20.495,21.735 20.495,21.5825 L20.495,15.7625 L17.62,23.0525 L17.2325,23.0525 L13.8875,15.7625 L13.8875,20.65 C13.8575,20.855 13.93,21.0625 14.075,21.21 L15.42,22.8375 L15.42,23.055 L11.6,23.055 L11.6,22.8375 L12.945,21.21 C13.09,21.0625 13.1525,20.8525 13.12,20.65 L13.12,15 C13.1375,14.8425 13.0775,14.69 12.9575,14.5825 L11.7625,13.1425 L11.7625,12.925 L15.475,12.925 L18.34,19.2125 L20.8625,12.93 L24.4,12.93 L24.4,13.1425 Z" id="形状" fill="#F7B500" fill-rule="nonzero"></path>
                        </g>
                    </g>
                </g>
            </g>
        </g>
    </g>
</svg>