<?xml version="1.0" encoding="UTF-8"?>
<svg width="38px" height="36px" viewBox="0 0 38 36" version="1.1" xmlns="http://www.w3.org/2000/svg" xmlns:xlink="http://www.w3.org/1999/xlink">
    <!-- Generator: Sketch 60 (88103) - https://sketch.com -->
    <title>编组 3备份 4</title>
    <desc>Created with Sketch.</desc>
    <g id="页面-1" stroke="none" stroke-width="1" fill="none" fill-rule="evenodd">
        <g id="合集详情-2" transform="translate(-1618.000000, -3048.000000)">
            <rect fill="#FFFFFF" x="0" y="0" width="1920" height="3152"></rect>
            <rect id="矩形" fill="#F7FAFF" x="0" y="90" width="1920" height="4966"></rect>
            <rect id="矩形" fill="#242424" x="0" y="3022" width="1920" height="130"></rect>
            <g id="编组-5备份" transform="translate(1509.000000, 3048.000000)">
                <g id="编组-3" transform="translate(110.141592, 0.125765)">
                    <ellipse id="椭圆形" stroke="#F7B500" cx="17.9685797" cy="17.9371177" rx="17.9685797" ry="17.9371177"></ellipse>
                    <g id="tuite" transform="translate(7.106393, 8.501113)" fill="#F7B500" fill-rule="nonzero">
                        <path d="M19.0905868,5.17721317 C19.0905868,4.97818649 19.0867627,4.78140532 19.0779524,4.58597144 C19.9302295,3.95202769 20.6696969,3.15846586 21.2545525,2.25038324 C20.4603008,2.60713948 19.6151358,2.83796094 18.749571,2.93451407 C19.650436,2.38110912 20.3413155,1.49604294 20.6677849,0.433918589 C19.8242806,0.944584085 18.8912485,1.30966592 17.8992059,1.49989771 C17.1043272,0.597017165 15.9700072,0.0219430864 14.7160168,0.000573360852 C12.3076864,-0.0391720937 10.3553934,1.99244944 10.3553934,4.53773049 C10.3553934,4.89951894 10.3932965,5.25037924 10.4685405,5.58918867 C6.84191082,5.35621743 3.62824173,3.47178879 1.47855996,0.630999171 C1.10346506,1.31161203 0.888268203,2.10704512 0.888268203,2.9594766 C0.888268203,4.57174989 1.65814064,6.00471954 2.82788933,6.85030226 C2.11177863,6.81796696 1.44095675,6.60146277 0.852577014,6.24648569 L0.852577014,6.30569222 C0.852577014,8.55905748 2.3561808,10.4470415 4.35128823,10.8875349 C3.98552854,10.9913896 3.59974879,11.0454314 3.20298423,11.0434853 C2.92731534,11.0420635 2.6525421,11.0120242 2.38309914,10.9538522 C2.93747477,12.8004441 4.54867699,14.149544 6.45616855,14.1944916 C4.96328713,15.4301561 3.08271393,16.1682539 1.04096801,16.1630893 C0.688929915,16.1630893 0.34105331,16.1395115 0,16.096772 C1.93058586,17.4187388 4.22224508,18.1886858 6.68576187,18.1886858 C14.705032,18.190594 19.0905868,11.2227515 19.0905868,5.17721317 L19.0905868,5.17721317 Z" id="路径"></path>
                    </g>
                </g>
            </g>
        </g>
    </g>
</svg>