<?xml version="1.0" encoding="UTF-8"?>
<svg width="37px" height="36px" viewBox="0 0 37 36" version="1.1" xmlns="http://www.w3.org/2000/svg" xmlns:xlink="http://www.w3.org/1999/xlink">
    <!-- Generator: Sketch 60 (88103) - https://sketch.com -->
    <title>编组 3备份 7</title>
    <desc>Created with Sketch.</desc>
    <g id="页面-1" stroke="none" stroke-width="1" fill="none" fill-rule="evenodd">
        <g id="合集详情-2" transform="translate(-1673.000000, -3048.000000)">
            <rect fill="#FFFFFF" x="0" y="0" width="1920" height="3152"></rect>
            <rect id="矩形" fill="#F7FAFF" x="0" y="90" width="1920" height="4966"></rect>
            <rect id="矩形" fill="#242424" x="0" y="3022" width="1920" height="130"></rect>
            <g id="编组-5备份" transform="translate(1509.000000, 3048.000000)">
                <g id="编组-3备份-3" transform="translate(165.062841, 0.125765)">
                    <ellipse id="椭圆形" stroke="#F7B500" cx="17.9685797" cy="17.9371177" rx="17.9685797" ry="17.9371177"></ellipse>
                    <g id="Discord" transform="translate(8.937159, 7.874235)" fill="#F7B500" fill-rule="nonzero">
                        <path d="M10.9180328,9 C10.3278689,9 9.83606557,9.44444444 9.83606557,10 C9.83606557,10.5555556 10.3278689,11 10.9180328,11 C11.5081967,11 12,10.5555556 12,10 C12,9.44444444 11.5081967,9 10.9180328,9 L10.9180328,9 Z M7.08196721,9 C6.49180328,9 6,9.44444444 6,10 C6,10.5555556 6.49180328,11 7.08196721,11 C7.67213115,11 8.16393443,10.5555556 8.16393443,10 C8.16393443,9.44444444 7.67213115,9 7.08196721,9 L7.08196721,9 Z" id="形状"></path>
                        <path d="M15.8785714,0 L2.12142857,0 C0.932142857,0 0,0.9515625 0,2.165625 L0,16.3734375 C0,17.5546875 0.932142857,18.5390625 2.12142857,18.5390625 L13.7892857,18.5390625 L13.2428571,16.603125 L14.5607143,17.85 L15.8142857,19.03125 L18,21 L18,2.165625 C18,0.9515625 17.0678571,0 15.8785714,0 Z M11.925,13.715625 C11.925,13.715625 11.5392857,13.25625 11.25,12.8625 C12.6,12.46875 13.1142857,11.615625 13.1142857,11.615625 C12.6964286,11.9109375 12.2785714,12.1078125 11.925,12.2390625 C11.4107143,12.46875 10.9285714,12.6 10.4464286,12.6984375 C9.45,12.8953125 8.55,12.8296875 7.77857143,12.6984375 C7.2,12.5671875 6.68571429,12.403125 6.26785714,12.2390625 C6.04285714,12.140625 5.78571429,12.0421875 5.52857143,11.878125 C5.49642857,11.8453125 5.46428571,11.8453125 5.43214286,11.8125 C5.4,11.8125 5.4,11.7796875 5.4,11.7796875 C5.20714286,11.68125 5.11071429,11.615625 5.11071429,11.615625 C5.11071429,11.615625 5.59285714,12.46875 6.91071429,12.8625 C6.58928571,13.25625 6.23571429,13.7484375 6.23571429,13.7484375 C3.95357143,13.6828125 3.08571429,12.140625 3.08571429,12.140625 C3.08571429,8.7609375 4.56428571,6.0046875 4.56428571,6.0046875 C6.04285714,4.85625 7.45714286,4.8890625 7.45714286,4.8890625 L7.55357143,5.0203125 C5.68928571,5.578125 4.82142857,6.3984375 4.82142857,6.3984375 C4.82142857,6.3984375 5.04642857,6.2671875 5.43214286,6.103125 C6.525,5.6109375 7.39285714,5.4796875 7.77857143,5.446875 C7.84285714,5.446875 7.90714286,5.4140625 7.93928571,5.4140625 C8.58214286,5.315625 9.28928571,5.315625 10.0285714,5.38125 C10.9928571,5.5125 12.0535714,5.775 13.1142857,6.3984375 C13.1142857,6.3984375 12.3107143,5.6109375 10.5428571,5.053125 L10.6714286,4.8890625 C10.6714286,4.8890625 12.0857143,4.85625 13.5642857,6.0046875 C13.5642857,6.0046875 15.0428571,8.7609375 15.0428571,12.140625 C15.075,12.1078125 14.2071429,13.65 11.925,13.715625 L11.925,13.715625 Z" id="形状"></path>
                    </g>
                </g>
            </g>
        </g>
    </g>
</svg>