<?xml version="1.0" encoding="UTF-8"?>
<svg width="14px" height="14px" viewBox="0 0 14 14" version="1.1" xmlns="http://www.w3.org/2000/svg" xmlns:xlink="http://www.w3.org/1999/xlink">
    <!-- Generator: Sketch 60 (88103) - https://sketch.com -->
    <title>close-bold备份 4@2x</title>
    <desc>Created with Sketch.</desc>
    <g id="页面-1" stroke="none" stroke-width="1" fill="none" fill-rule="evenodd">
        <g id="抵押备份" transform="translate(-546.000000, -845.000000)" fill="#8C9399" fill-rule="nonzero">
            <g id="close-bold备份-4" transform="translate(546.000000, 845.000000)">
                <path d="M8.225,7 L13.7375,1.4875 C14.0875,1.13749999 14.0875,0.612499992 13.7375,0.262500005 C13.3875,-0.0875000018 12.8625,-0.0875000018 12.5125,0.262500005 L7,5.77500001 L1.4875,0.262500005 C1.13749999,-0.0875000018 0.612499992,-0.0875000018 0.262500005,0.262500005 C-0.0875000018,0.612500012 -0.0875000018,1.13750001 0.262500005,1.4875 L5.77500001,7 L0.262500005,12.5125 C-0.0875000018,12.8625 -0.0875000018,13.3875 0.262500005,13.7375 C0.437499999,13.9125 0.656250006,14 0.874999992,14 C1.09374998,14 1.31249999,13.9125 1.4875,13.7375 L7,8.225 L12.5125,13.7375 C12.6875,13.9125 12.90625,14 13.125,14 C13.34375,14 13.5625,13.9125 13.7375,13.7375 C14.0875,13.3875 14.0875,12.8625 13.7375,12.5125 L8.225,7 Z" id="路径"></path>
            </g>
        </g>
    </g>
</svg>