<?xml version="1.0" encoding="UTF-8"?>
<svg width="16px" height="16px" viewBox="0 0 16 16" version="1.1" xmlns="http://www.w3.org/2000/svg" xmlns:xlink="http://www.w3.org/1999/xlink">
    <title>close-bold备份 2@2x</title>
    <g id="弹窗设计" stroke="none" stroke-width="1" fill="none" fill-rule="evenodd">
        <g id="DAO-确认抵押" transform="translate(-1224.000000, -234.000000)" fill="#666666" fill-rule="nonzero">
            <g id="编组-6备份" transform="translate(660.000000, 211.000000)">
                <g id="close-bold备份-2" transform="translate(564.000000, 23.000000)">
                    <path d="M9.4,8 L15.7,1.7 C16.1,1.29999999 16.1,0.699999991 15.7,0.300000006 C15.3,-0.100000002 14.7,-0.100000002 14.3,0.300000006 L8,6.60000001 L1.7,0.300000006 C1.29999999,-0.100000002 0.699999991,-0.100000002 0.300000006,0.300000006 C-0.100000002,0.700000014 -0.100000002,1.30000001 0.300000006,1.7 L6.60000001,8 L0.300000006,14.3 C-0.100000002,14.7 -0.100000002,15.3 0.300000006,15.7 C0.5,15.9 0.750000006,16 1,16 C1.24999998,16 1.5,15.9 1.7,15.7 L8,9.4 L14.3,15.7 C14.5,15.9 14.75,16 15,16 C15.25,16 15.5,15.9 15.7,15.7 C16.1,15.3 16.1,14.7 15.7,14.3 L9.4,8 Z" id="路径"></path>
                </g>
            </g>
        </g>
    </g>
</svg>