<?xml version="1.0" standalone="no"?><!DOCTYPE svg PUBLIC "-//W3C//DTD SVG 1.1//EN" "http://www.w3.org/Graphics/SVG/1.1/DTD/svg11.dtd"><svg t="1653918831863" class="icon" viewBox="0 0 1024 1024" version="1.1" xmlns="http://www.w3.org/2000/svg" p-id="2212" xmlns:xlink="http://www.w3.org/1999/xlink" width="200" height="200"><defs><style type="text/css">@font-face { font-family: element-icons; src: url("chrome-extension://moombeodfomdpjnpocobemoiaemednkg/fonts/element-icons.woff") format("woff"), url("chrome-extension://moombeodfomdpjnpocobemoiaemednkg/fonts/element-icons.ttf ") format("truetype"); }
</style></defs><path d="M639.9 256.3H192.4c-35.2 0-63.9 28.8-63.9 63.9v575.4c0 35.2 28.8 63.9 63.9 63.9h447.5c35.2 0 63.9-28.8 63.9-63.9V320.2c0-35.1-28.8-63.9-63.9-63.9z m0 639.3H192.4V320.2h447.5v575.4z" p-id="2213" fill="#f7b500"></path><path d="M831.6 64.5H384.1c-35.2 0-63.9 28.8-63.9 63.9v63.9h63.9v-63.9h447.5v575.4h-63.9v63.9h63.9c35.2 0 63.9-28.8 63.9-63.9V128.4c0.1-35.1-28.7-63.9-63.9-63.9z" p-id="2214" fill="#f7b500"></path></svg>