<?xml version="1.0" encoding="UTF-8"?>
<svg width="222px" height="200px" viewBox="0 0 222 200" version="1.1" xmlns="http://www.w3.org/2000/svg" xmlns:xlink="http://www.w3.org/1999/xlink">
    <!-- Generator: Sketch 60 (88103) - https://sketch.com -->
    <title>没有搜索结果</title>
    <desc>Created with Sketch.</desc>
    <g id="页面-1" stroke="none" stroke-width="1" fill="none" fill-rule="evenodd">
        <g id="没有搜索结果" transform="translate(-10.000000, -4.000000)">
            <g id="未登录">
                <rect id="矩形备份-2" fill="#757575" opacity="0" x="0" y="0" width="240" height="240"></rect>
                <g id="noresult" transform="translate(37.000000, 37.000000)" fill="#ECECEC" fill-rule="nonzero" stroke="#FFFFFF">
                    <path d="M164.331372,155.779999 L130.882068,122.32494 C130.669335,122.111824 130.397329,122.017254 130.166756,121.845955 C141.176493,108.938121 147.858105,92.2223884 147.858105,73.927945 C147.858105,33.1112577 114.757729,0.00493494298 73.9350954,0.00493494298 C33.1126535,0.00493494298 0.0120854178,33.1110661 0.0120854178,73.927945 C0.0120854178,80.4499599 0.940513415,86.735264 2.52517129,92.7604546 C4.44091724,89.8391674 9.40704788,82.9444386 12.3759074,81.6561489 C12.0567122,79.1194688 11.8437878,76.5534396 11.8437878,73.927945 C11.8437878,39.6392192 39.6461779,11.8306905 73.9410423,11.8306905 C108.235907,11.8306905 136.038105,39.6390272 136.038105,73.927945 C136.038105,100.878637 118.837441,123.755755 94.8488955,132.347167 C93.7075428,137.213549 91.8627717,141.854921 89.3498778,146.171536 C101.654618,143.546041 112.841983,137.905266 122.048191,129.99387 C122.219682,130.218688 122.314251,130.49031 122.521421,130.703235 L155.976288,164.140646 C158.288342,166.464401 162.025265,166.464401 164.337127,164.140646 C166.648989,161.840485 166.648989,158.091861 164.331372,155.779999 L164.331372,155.779999 Z M77.1222505,88.7338778 C68.6077602,80.2193875 57.2843914,75.5302506 45.2340098,75.5302506 C33.1836283,75.5302506 21.8663979,80.2193875 13.3517156,88.7338778 C4.83127862,97.2485601 0.142333721,108.571545 0.142333721,120.621735 C0.142333721,132.672308 4.83127881,143.989539 13.3517156,152.509976 C21.8721526,161.030604 33.1953294,165.719166 45.2399564,165.719166 C45.2399564,165.719166 45.2399564,165.719166 45.2457111,165.719166 C57.2903379,165.719166 68.6137066,161.024274 77.1280052,152.509976 C85.6426875,144.001624 90.3318244,132.672308 90.3318244,120.621735 C90.3258777,108.5773 85.6365491,97.254123 77.1222505,88.7338778 Z M68.7614111,144.149136 C62.4759153,150.434824 54.1210223,153.893602 45.2399564,153.893602 L45.2399564,153.893602 C36.3529438,153.893602 27.9921044,150.428686 21.712555,144.149136 C15.4272509,137.863832 11.9680893,129.508939 11.9680893,120.621735 C11.9680893,111.734722 15.4272509,103.380021 21.712555,97.094909 C27.9978591,90.8090294 36.3469972,87.3560062 45.2340098,87.3560062 C54.1212141,87.3560062 62.4759151,90.8151678 68.7614111,97.094909 C75.0467152,103.380213 78.5056849,111.734722 78.5056849,120.621735 C78.5056849,129.514886 75.0467152,137.864024 68.7614111,144.149136 Z M58.1533723,107.70786 C56.7124907,106.266695 54.3836254,106.266695 52.9428634,107.70786 L45.2338542,115.416869 L37.5249645,107.70786 C36.0842026,106.266695 33.7553373,106.266695 32.3145752,107.70786 C30.8736936,109.148667 30.8736936,111.477485 32.3145752,112.91853 L40.0233453,120.62742 L32.3145752,128.336548 C30.8736936,129.777354 30.8736936,132.106292 32.3145752,133.547218 C33.0330434,134.265828 33.9764963,134.626986 34.9197101,134.626986 C35.863163,134.626986 36.8064963,134.265828 37.5249645,133.547218 L45.2338542,125.838209 L52.9428634,133.547218 C53.6613317,134.265828 54.6046649,134.626986 55.5479983,134.626986 C56.4914512,134.626986 57.4347845,134.265828 58.1532528,133.547218 C59.5941344,132.106292 59.5941344,129.777354 58.1532528,128.336548 L50.4444827,120.62742 L58.1532528,112.91853 C59.5904284,111.481191 59.5904284,109.148667 58.1533723,107.70786 L58.1533723,107.70786 Z" id="形状"></path>
                </g>
                <path d="M17.9485032,39.8015544 C15.0386089,39.8015544 12.4411864,41.3053253 11.0545925,43.8051003 C9.64846916,46.3048753 9.64846916,49.4100645 11.0545925,51.8121919 C12.4607159,54.3119669 15.1557858,55.8157377 17.9485032,55.8157377 C22.3426388,55.8157377 25.9555948,52.2223112 25.9555948,47.8086461 C25.9555948,43.394981 22.3426388,39.8015544 17.9485032,39.8015544 L17.9485032,39.8015544 Z" id="路径" fill="#FFD1D5" fill-rule="nonzero"></path>
                <path d="M21.4442822,49.8983016 C20.7412206,51.0896006 19.4522741,51.8903099 17.9485032,51.8903099 C15.7416706,51.8903099 13.9449574,50.0935967 13.9449574,47.886764 C13.9449574,45.6799312 15.7416706,43.8832181 17.9485032,43.8832181 C19.3546265,43.8832181 20.6435731,44.6839273 21.4442822,45.8752264 C22.1473439,47.1055844 22.1473439,48.5898258 21.4442822,49.8983016 L21.4442822,49.8983016 Z" id="路径" fill="#FFD1D5" fill-rule="nonzero"></path>
                <path d="M183.285181,23.7873711 C180.375287,23.7873711 177.777864,25.2911419 176.39127,27.7909169 C174.985147,30.2906919 174.985147,33.3958811 176.39127,35.7980086 C177.797394,38.2977836 180.492464,39.8015544 183.285181,39.8015544 C187.679317,39.8015544 191.292273,36.2081279 191.292273,31.7944627 C191.272743,27.400327 187.776964,23.7873711 183.285181,23.7873711 L183.285181,23.7873711 Z" id="路径" fill="#FFD1D5" fill-rule="nonzero"></path>
                <path d="M186.78096,33.7864709 C186.077898,34.9777699 184.788952,35.7784791 183.285181,35.7784791 C181.078348,35.7784791 179.281635,33.9817659 179.281635,31.7749332 C179.281635,29.5681006 181.078348,27.7713874 183.285181,27.7713874 C184.691304,27.7713874 186.077898,28.5720966 186.78096,29.7633956 C187.484022,30.9937536 187.484022,32.5951718 186.78096,33.7864709 L186.78096,33.7864709 Z" id="路径" fill="#FFD1D5" fill-rule="nonzero"></path>
                <path d="M227.600968,161.984016 L227.600968,159.288946 C227.600968,158.878827 227.503321,158.585885 227.210378,158.39059 C226.917436,158.195295 226.604964,158 226.312022,158 C225.60896,158 225.003546,158.605414 225.003546,159.308476 L225.003546,162.003546 L222.308476,162.003546 C221.917886,162.003546 221.605414,162.101193 221.410119,162.413665 C221.214824,162.706607 221,163.019079 221,163.312022 C221,164.015084 221.605414,164.620498 222.308476,164.620498 L225.003546,164.620498 L225.003546,167.315568 C225.003546,168.018629 225.60896,168.624044 226.312022,168.624044 C227.015083,168.624044 227.620498,168.018629 227.620498,167.315568 L227.620498,164.581439 L230.315568,164.581439 C231.018629,164.581439 231.624044,163.976024 231.624044,163.272963 C231.624044,162.569901 231.018629,161.964487 230.315568,161.964487 L227.600968,161.964487 L227.600968,161.984016 Z" id="路径备份-2" fill="#D2D1FF" fill-rule="nonzero"></path>
                <path d="M114.018629,9.99555393 L118.022175,9.99555393 C119.115827,9.99555393 120.014183,10.8939105 120.014183,11.9875622 C120.014183,13.0812138 119.115827,13.9795703 118.022175,13.9795703 L114.018629,13.9795703 L114.018629,17.9831161 C114.018629,19.0767676 113.120273,19.9751242 112.026621,19.9751242 C111.518854,19.9751242 111.030617,19.7798293 110.620498,19.36971 C110.229908,19.0767676 110.015084,18.5690009 110.015084,17.9635867 L110.015084,13.9990997 L106.011538,13.9990997 C105.503771,13.9990997 105.015534,13.8038048 104.605414,13.3936855 C104.214824,13.1007431 104,12.5929764 104,11.9875622 C104,10.8939107 104.898357,9.99555406 105.992008,9.99555393 L109.995554,9.99555393 L109.995554,5.99200812 C109.995554,4.8983566 110.893911,4 111.987562,4 C113.081214,4 113.97957,4.8983566 113.97957,5.99200812 L113.97957,9.99555393 L114.018629,9.99555393 Z" id="路径备份-3" fill="#D2D1FF" fill-rule="nonzero"></path>
                <path d="M19.6204977,187.984016 L22.3155676,187.984016 C23.0186293,187.984016 23.6240435,188.589431 23.6240435,189.292492 C23.6240435,189.995554 23.0186293,190.600968 22.3155676,190.600968 L19.6204977,190.600968 L19.6204977,193.296038 C19.6204977,193.9991 19.0150835,194.604514 18.3120218,194.604514 C17.921432,194.604514 17.6089602,194.506867 17.4136652,194.213924 C17.1207228,194.018629 17.0230754,193.60851 17.0230754,193.315568 L17.0230754,190.620498 L14.308476,190.620498 C13.6054143,190.620498 13,190.015084 13,189.312022 C13,188.60896 13.6054142,188.003546 14.308476,188.003546 L17.0035458,188.003546 L17.0035458,185.308476 C17.0035458,184.605414 17.60896,184 18.3120218,184 C19.0150836,184 19.6204978,184.605414 19.6204977,185.308476 L19.6204977,187.984016 Z" id="路径备份" fill="#D2D1FF" fill-rule="nonzero"></path>
            </g>
        </g>
    </g>
</svg>