<?xml version="1.0" encoding="UTF-8"?>
<svg width="60px" height="20px" viewBox="0 0 60 20" version="1.1" xmlns="http://www.w3.org/2000/svg" xmlns:xlink="http://www.w3.org/1999/xlink">
    <title>奖励@2x</title>
    <defs>
        <linearGradient x1="92.8477941%" y1="47.4346161%" x2="7.62539055%" y2="53.4309111%" id="linearGradient-1">
            <stop stop-color="#FD9733" offset="0%"></stop>
            <stop stop-color="#F7B500" offset="100%"></stop>
        </linearGradient>
    </defs>
    <g id="弹窗设计" stroke="none" stroke-width="1" fill="none" fill-rule="evenodd">
        <g id="一键领取区域" transform="translate(-451.000000, -370.000000)">
            <g id="编组-8" transform="translate(196.000000, 299.000000)">
                <g id="编组-2" transform="translate(20.000000, 56.000000)">
                    <g id="奖励" transform="translate(235.000000, 15.000000)">
                        <path d="M12,0 L50,0 C55.5228475,1.18562277e-15 60,4.4771525 60,10 C60,15.5228475 55.5228475,20 50,20 L0,20 L0,20 L0,12 C-8.11624501e-16,5.372583 5.372583,1.21743675e-15 12,0 Z" id="矩形" fill="url(#linearGradient-1)"></path>
                        <g id="编组-27" transform="translate(6.000000, 5.000000)" fill="#FFFFFF" fill-rule="nonzero">
                            <g id="新奖励" transform="translate(0.372000, 0.028000)">
                                <path d="M10.344,0.228 C9.168,0.684 7.848,0.936 6.372,0.96 L6.372,6.144 C6.324,7.932 5.952,9.324 5.268,10.332 L6.072,11.196 C6.948,9.936 7.416,8.256 7.476,6.144 L7.476,4.932 L8.916,4.932 L8.916,11.22 L10.032,11.22 L10.032,4.932 L11.184,4.932 L11.184,3.84 L7.476,3.84 L7.476,1.896 C8.724,1.812 9.864,1.596 10.896,1.236 L10.344,0.228 Z M0.324,1.08 L0.324,2.136 L5.808,2.136 L5.808,1.08 L3.588,1.08 C3.444,0.684 3.288,0.324 3.144,0 L1.968,0.192 C2.148,0.468 2.316,0.768 2.46,1.08 L0.324,1.08 Z M0.204,3.804 L0.204,4.848 L2.532,4.848 L2.532,5.928 L0.396,5.928 L0.396,6.96 L2.532,6.96 L2.532,9.912 C2.532,10.152 2.388,10.272 2.1,10.272 C1.944,10.272 1.776,10.248 1.596,10.2 L1.848,11.256 L2.472,11.256 C3.264,11.256 3.66,10.896 3.66,10.176 L3.66,6.96 L5.676,6.96 L5.676,5.928 L3.66,5.928 L3.66,4.848 L5.88,4.848 L5.88,3.804 L4.656,3.804 C4.836,3.444 5.004,3.048 5.148,2.604 L4.128,2.244 C3.984,2.784 3.816,3.3 3.624,3.804 L2.484,3.804 C2.316,3.204 2.124,2.688 1.932,2.256 L0.936,2.628 C1.14,2.988 1.32,3.384 1.476,3.804 L0.204,3.804 Z M1.116,7.488 C0.9,8.472 0.528,9.408 0,10.272 L0.936,10.872 C1.464,9.972 1.86,8.916 2.148,7.704 L1.116,7.488 Z M4.872,7.404 L3.936,7.656 C4.224,8.376 4.464,9.108 4.656,9.852 L5.616,9.492 C5.436,8.868 5.184,8.172 4.872,7.404 Z" id="新"></path>
                                <path d="M12.396,6.708 L12.396,7.824 L16.692,7.824 C16.008,8.892 14.484,9.672 12.12,10.152 L12.588,11.208 C15.204,10.584 16.92,9.624 17.724,8.304 C18.408,9.648 20.04,10.608 22.632,11.184 L23.1,10.128 C20.856,9.72 19.32,8.952 18.504,7.824 L22.86,7.824 L22.86,6.708 L18.192,6.708 C18.216,6.444 18.24,6.168 18.24,5.856 L17.136,5.856 C17.136,6.168 17.112,6.444 17.076,6.708 L12.396,6.708 Z M15.528,0.192 L15.528,3.156 C14.58,3.612 13.488,4.008 12.252,4.344 L12.708,5.4 C13.764,5.064 14.712,4.704 15.528,4.296 L15.528,5.784 L16.68,5.784 L16.68,0.192 L15.528,0.192 Z M13.14,0.624 L12.528,1.524 C13.2,1.836 13.848,2.28 14.484,2.844 L15.096,1.896 C14.508,1.392 13.86,0.96 13.14,0.624 Z M19.104,0.168 C18.708,1.044 17.952,1.788 16.836,2.4 L17.532,3.312 C18.156,2.928 18.696,2.508 19.14,2.04 L21.552,2.04 C21.264,2.592 20.832,3.084 20.232,3.504 C19.92,3.168 19.596,2.844 19.248,2.544 L18.468,3.132 C18.768,3.384 19.08,3.672 19.404,3.996 C18.78,4.308 18.048,4.56 17.196,4.764 L17.748,5.76 C20.508,5.04 22.152,3.78 22.68,1.968 L22.68,1.008 L19.92,1.008 C20.052,0.78 20.172,0.54 20.268,0.3 L19.104,0.168 Z" id="奖"></path>
                                <path d="M26.664,3.78 L26.664,5.82 C26.652,7.932 26.256,9.48 25.476,10.452 L26.268,11.136 C27.12,10.092 27.588,8.484 27.66,6.312 L28.824,6.312 C28.812,7.992 28.776,9.048 28.704,9.468 C28.632,9.876 28.476,10.092 28.212,10.116 C27.972,10.116 27.684,10.092 27.336,10.068 L27.636,11.004 C27.9,11.04 28.128,11.064 28.332,11.064 C28.98,11.052 29.388,10.728 29.568,10.092 C29.736,9.444 29.844,7.848 29.88,5.328 L27.672,5.328 L27.672,3.78 L29.892,3.78 L29.892,2.748 L25.74,2.748 L25.74,1.572 L30.204,1.572 L30.204,0.54 L24.684,0.54 L24.684,5.94 C24.66,7.884 24.444,9.408 24.012,10.488 L24.804,11.208 C25.392,9.888 25.704,8.124 25.74,5.94 L25.74,3.78 L26.664,3.78 Z M31.524,0.18 L31.524,2.616 L30.252,2.616 L30.252,3.672 L31.524,3.672 C31.464,6.792 30.876,9.084 29.748,10.524 L30.552,11.244 C31.848,9.624 32.544,7.104 32.616,3.672 L33.684,3.672 C33.672,6.864 33.636,8.748 33.564,9.312 C33.492,9.84 33.24,10.116 32.82,10.116 C32.496,10.116 32.112,10.092 31.68,10.056 L31.92,11.016 C32.424,11.04 32.772,11.064 32.988,11.064 C33.924,11.064 34.452,10.62 34.572,9.732 C34.68,8.832 34.74,6.456 34.74,2.616 L32.628,2.616 L32.628,0.18 L31.524,0.18 Z" id="励"></path>
                            </g>
                        </g>
                        <g id="shuaxin-4" transform="translate(44.000000, 5.000000)" fill="#FFFFFF" fill-rule="nonzero">
                            <path d="M10.4846669,7.4171866 L10.3950544,7.4171866 C10.2744767,7.40355464 10.1689825,7.32984423 10.114715,7.22130927 C10.0604475,7.1127743 10.0647758,6.98415266 10.1262168,6.87951137 C10.9092484,4.7271308 9.94295379,2.33072022 7.88590333,1.32353402 C6.19322713,0.521283908 4.17799825,0.88114621 2.86760121,2.2196594 C2.68921836,2.35344653 2.4396051,2.33570705 2.28193545,2.1780374 C2.1242658,2.02036775 2.10652633,1.7707545 2.24031345,1.59237164 C3.84108214,-0.0160823299 6.27934342,-0.446363732 8.33396602,0.517021188 C10.7824642,1.72491761 11.908588,4.59847501 10.9327296,7.14834898 C10.8564957,7.32478792 10.6762231,7.43295147 10.4846669,7.4171866 L10.4846669,7.4171866 Z M6.00404003,10.5536254 C5.19757899,10.5456296 4.40252665,10.362156 3.67411406,10.0159502 C1.31158037,8.82055359 0.170981024,6.08311515 0.985737914,3.56384747 C1.02457767,3.43836067 1.11652774,3.33623865 1.23726668,3.28449339 C1.35800562,3.23274813 1.4953699,3.23659258 1.61302569,3.29500986 C1.82740803,3.37861359 1.94360972,3.61101697 1.8818633,3.83268508 C1.20289923,5.93207482 2.15339868,8.21327351 4.12217675,9.20943735 C5.81485294,10.0116875 7.83008183,9.65182517 9.14047887,8.31331198 C9.24567075,8.17305611 9.42300133,8.10703674 9.59430333,8.14435519 C9.76560533,8.18167363 9.89940497,8.31547328 9.93672342,8.48677528 C9.97404187,8.65807728 9.9080225,8.83540786 9.76776663,8.94059974 C8.79959856,9.98895194 7.43089375,10.5755397 6.00404003,10.5536254 L6.00404003,10.5536254 Z" id="形状"></path>
                            <path d="M2.06108837,5.08726062 C1.88186329,5.08726062 1.79225076,5.08726062 1.70263822,4.90803554 L1.34418807,4.37036031 L0.716900303,4.90803554 C0.518933753,5.05651045 0.238087458,5.01638955 0.0896125404,4.81842301 C0.0183123707,4.72335611 -0.0123023534,4.60385903 0.0045032579,4.48621975 C0.0213088692,4.36858048 0.0841581879,4.2624354 0.179225081,4.19113523 L1.16496299,3.3846224 C1.25457554,3.29500986 1.43380061,3.20539732 1.52341315,3.29500986 C1.61302569,3.3846224 1.79225076,3.3846224 1.79225076,3.47423493 L2.41953852,4.45997285 C2.5987636,4.63919793 2.50915106,4.90803555 2.24031345,5.08726062 L2.06108837,5.08726062 Z M10.4846669,7.68602422 L10.3950544,7.68602422 L10.1262168,7.4171866 L9.58854155,6.43144868 C9.40931647,6.2522236 9.49892901,5.98338599 9.76776663,5.80416092 C9.99392582,5.74191988 10.2359145,5.8110595 10.3950544,5.98338599 L10.663892,6.61067376 L11.2911798,6.07299853 C11.4975353,5.96339695 11.7510547,5.999614 11.9184675,6.16261107 C12.0080801,6.34183615 12.0080801,6.7002863 11.828855,6.78989883 L10.7535045,7.59641168 L10.4846669,7.68602422 Z" id="形状"></path>
                        </g>
                    </g>
                </g>
            </g>
        </g>
    </g>
</svg>