<?xml version="1.0" encoding="UTF-8"?>
<svg width="78px" height="21px" viewBox="0 0 78 21" version="1.1" xmlns="http://www.w3.org/2000/svg" xmlns:xlink="http://www.w3.org/1999/xlink">
    <title>Rewards@2x</title>
    <defs>
        <linearGradient x1="92.8477941%" y1="48.4820214%" x2="7.62539055%" y2="52.0301249%" id="linearGradient-1">
            <stop stop-color="#FD9733" offset="0%"></stop>
            <stop stop-color="#F7B500" offset="100%"></stop>
        </linearGradient>
        <filter x="-7.7%" y="-44.6%" width="115.4%" height="189.1%" filterUnits="objectBoundingBox" id="filter-2">
            <feOffset dx="0" dy="1" in="SourceAlpha" result="shadowOffsetOuter1"></feOffset>
            <feGaussianBlur stdDeviation="0.5" in="shadowOffsetOuter1" result="shadowBlurOuter1"></feGaussianBlur>
            <feColorMatrix values="0 0 0 0 0.969235628   0 0 0 0 0.501435077   0 0 0 0 0  0 0 0 0.574420209 0" type="matrix" in="shadowBlurOuter1" result="shadowMatrixOuter1"></feColorMatrix>
            <feMerge>
                <feMergeNode in="shadowMatrixOuter1"></feMergeNode>
                <feMergeNode in="SourceGraphic"></feMergeNode>
            </feMerge>
        </filter>
        <filter x="-36.4%" y="-33.3%" width="172.7%" height="166.7%" filterUnits="objectBoundingBox" id="filter-3">
            <feOffset dx="0" dy="1" in="SourceAlpha" result="shadowOffsetOuter1"></feOffset>
            <feGaussianBlur stdDeviation="0.5" in="shadowOffsetOuter1" result="shadowBlurOuter1"></feGaussianBlur>
            <feColorMatrix values="0 0 0 0 0.969235628   0 0 0 0 0.501435077   0 0 0 0 0  0 0 0 0.574420209 0" type="matrix" in="shadowBlurOuter1" result="shadowMatrixOuter1"></feColorMatrix>
            <feMerge>
                <feMergeNode in="shadowMatrixOuter1"></feMergeNode>
                <feMergeNode in="SourceGraphic"></feMergeNode>
            </feMerge>
        </filter>
    </defs>
    <g id="弹窗设计" stroke="none" stroke-width="1" fill="none" fill-rule="evenodd">
        <g id="Rewards" fill-rule="nonzero">
            <path d="M12.48,0 L67.6,0 C73.3437614,0 78,4.4771525 78,10 C78,15.5228475 73.3437614,20 67.6,20 L0,20 L0,20 L0,12 C0,5.372583 5.58748632,0 12.48,0 Z" id="矩形" fill="url(#linearGradient-1)"></path>
            <g id="编组-29" transform="translate(6.000000, 2.000000)" fill="#FFFFFF">
                <g id="Rewards" filter="url(#filter-2)" transform="translate(0.900000, 4.120000)">
                    <path d="M1.692,5.544 L1.692,8.88 L0,8.88 L0,0.504 L3.084,0.504 C4.052,0.504 4.798,0.746 5.322,1.23 C5.846,1.714 6.108,2.312 6.108,3.024 C6.108,3.552 5.948,4.044 5.628,4.5 C5.308,4.956 4.804,5.268 4.116,5.436 L6.252,8.88 L4.248,8.88 L2.244,5.544 L1.692,5.544 Z M1.692,1.8 L1.692,4.248 L3.084,4.248 C3.508,4.248 3.832,4.138 4.056,3.918 C4.28,3.698 4.392,3.4 4.392,3.024 C4.392,2.648 4.28,2.35 4.056,2.13 C3.832,1.91 3.508,1.8 3.084,1.8 L1.692,1.8 Z" id="R"></path>
                    <path d="M10.596,8.976 C9.628,8.976 8.84,8.662 8.232,8.034 C7.624,7.406 7.32,6.576 7.32,5.544 C7.32,4.512 7.626,3.686 8.238,3.066 C8.85,2.446 9.642,2.136 10.614,2.136 C11.586,2.136 12.384,2.438 13.008,3.042 C13.632,3.646 13.944,4.452 13.944,5.46 C13.944,5.692 13.928,5.908 13.896,6.108 L9.048,6.108 C9.088,6.54 9.248,6.888 9.528,7.152 C9.808,7.416 10.164,7.548 10.596,7.548 C11.18,7.548 11.612,7.308 11.892,6.828 L13.716,6.828 C13.524,7.46 13.152,7.976 12.6,8.376 C12.048,8.776 11.38,8.976 10.596,8.976 Z M12.192,5.016 C12.168,4.576 12.006,4.224 11.706,3.96 C11.406,3.696 11.044,3.564 10.62,3.564 C10.196,3.564 9.842,3.696 9.558,3.96 C9.274,4.224 9.104,4.576 9.048,5.016 L12.192,5.016 Z" id="e"></path>
                    <polygon id="w" points="22.812 2.232 24.432 2.232 22.392 8.88 20.592 8.88 19.452 4.416 18.3 8.88 16.5 8.88 14.46 2.232 16.164 2.232 17.388 7.284 18.612 2.232 20.388 2.232 21.588 7.272"></polygon>
                    <path d="M29.64,6.996 C29.992,6.644 30.168,6.164 30.168,5.556 C30.168,4.948 29.992,4.47 29.64,4.122 C29.288,3.774 28.876,3.6 28.404,3.6 C27.932,3.6 27.522,3.772 27.174,4.116 C26.826,4.46 26.652,4.936 26.652,5.544 C26.652,6.152 26.828,6.632 27.18,6.984 C27.532,7.336 27.942,7.512 28.41,7.512 C28.878,7.512 29.288,7.34 29.64,6.996 Z M25.824,8.016 C25.232,7.368 24.936,6.544 24.936,5.544 C24.936,4.544 25.232,3.726 25.824,3.09 C26.416,2.454 27.168,2.136 28.08,2.136 C28.992,2.136 29.688,2.512 30.168,3.264 L30.168,2.232 L31.848,2.232 L31.848,8.88 L30.168,8.88 L30.168,7.764 C29.664,8.572 28.964,8.976 28.068,8.976 C27.172,8.976 26.424,8.656 25.824,8.016 Z" id="a"></path>
                    <path d="M35.34,2.232 L35.34,3.408 C35.788,2.56 36.436,2.136 37.284,2.136 L37.284,3.864 L36.864,3.864 C36.36,3.864 35.98,3.99 35.724,4.242 C35.468,4.494 35.34,4.928 35.34,5.544 L35.34,8.88 L33.648,8.88 L33.648,2.232 L35.34,2.232 Z" id="r"></path>
                    <path d="M42.72,6.996 C43.072,6.644 43.248,6.164 43.248,5.556 C43.248,4.948 43.072,4.47 42.72,4.122 C42.368,3.774 41.956,3.6 41.484,3.6 C41.012,3.6 40.602,3.772 40.254,4.116 C39.906,4.46 39.732,4.936 39.732,5.544 C39.732,6.152 39.908,6.632 40.26,6.984 C40.612,7.336 41.022,7.512 41.49,7.512 C41.958,7.512 42.368,7.34 42.72,6.996 Z M38.904,8.016 C38.312,7.368 38.016,6.544 38.016,5.544 C38.016,4.544 38.312,3.726 38.904,3.09 C39.496,2.454 40.248,2.136 41.16,2.136 C42.072,2.136 42.768,2.512 43.248,3.264 L43.248,0 L44.928,0 L44.928,8.88 L43.248,8.88 L43.248,7.764 C42.744,8.572 42.044,8.976 41.148,8.976 C40.252,8.976 39.504,8.656 38.904,8.016 Z" id="d"></path>
                    <path d="M46.356,4.176 C46.356,3.6 46.6,3.116 47.088,2.724 C47.576,2.332 48.224,2.136 49.032,2.136 C49.84,2.136 50.488,2.33 50.976,2.718 C51.464,3.106 51.724,3.632 51.756,4.296 L50.028,4.296 C49.98,3.736 49.636,3.456 48.996,3.456 C48.676,3.456 48.428,3.52 48.252,3.648 C48.076,3.776 47.988,3.952 47.988,4.176 C47.988,4.4 48.12,4.576 48.384,4.704 C48.648,4.832 48.968,4.932 49.344,5.004 C49.72,5.076 50.094,5.166 50.466,5.274 C50.838,5.382 51.156,5.574 51.42,5.85 C51.684,6.126 51.816,6.492 51.816,6.948 C51.816,7.548 51.562,8.036 51.054,8.412 C50.546,8.788 49.898,8.976 49.11,8.976 C48.322,8.976 47.676,8.79 47.172,8.418 C46.668,8.046 46.392,7.512 46.344,6.816 L48.072,6.816 C48.136,7.376 48.492,7.656 49.14,7.656 C49.452,7.656 49.704,7.586 49.896,7.446 C50.088,7.306 50.184,7.122 50.184,6.894 C50.184,6.666 50.052,6.486 49.788,6.354 C49.524,6.222 49.204,6.12 48.828,6.048 C48.452,5.976 48.078,5.888 47.706,5.784 C47.334,5.68 47.016,5.494 46.752,5.226 C46.488,4.958 46.356,4.608 46.356,4.176 Z" id="s"></path>
                </g>
                <g id="编组" filter="url(#filter-3)" transform="translate(56.000000, 2.000000)">
                    <path d="M5.57584516,12 C2.50132012,12 0,9.53272951 0,6.49974278 C0,3.46727049 2.50132012,1 5.57584516,1 C6.50706737,1 7.42971636,1.23149952 8.24417144,1.66929085 C8.64385455,1.88467115 8.79388574,2.38419568 8.57852668,2.78443263 C8.36522518,3.18535551 7.86592135,3.33523002 7.46400921,3.11933528 C6.88857527,2.80964036 6.23598242,2.64621884 5.57584516,2.64621884 C3.40888027,2.64621884 1.64605657,4.37492011 1.64605657,6.49974278 C1.64605657,8.62507989 3.40888027,10.3537812 5.57584516,10.3537812 C7.36764631,10.3537812 8.93225737,9.16678878 9.38012193,7.46758227 C9.49688907,7.02824762 9.94801145,6.76656742 10.3864455,6.88180273 C10.8257368,6.99806694 11.08842,7.4482049 10.9726817,7.88771104 C10.3327772,10.3086816 8.1135157,12 5.57584516,12 L5.57584516,12 Z" id="路径"></path>
                    <path d="M10.9735396,4.45340448 L9.42102891,0.254756763 C9.31319151,-0.036879883 8.94480504,-0.090791263 8.76635153,0.159077863 L6.07702593,3.92367457 C5.89857243,4.1735437 6.0479794,4.53381155 6.34261901,4.56398721 L10.5846292,4.99803821 C10.8655283,5.02692588 11.076333,4.73160928 10.9735396,4.45340448 L10.9735396,4.45340448 Z" id="路径"></path>
                </g>
            </g>
        </g>
    </g>
</svg>