<?xml version="1.0" encoding="UTF-8"?>
<svg width="78px" height="20px" viewBox="0 0 78 20" version="1.1" xmlns="http://www.w3.org/2000/svg" xmlns:xlink="http://www.w3.org/1999/xlink">
    <title>Rewards备份@2x</title>
    <defs>
        <linearGradient x1="92.8477941%" y1="48.4820214%" x2="7.62539055%" y2="52.0301249%" id="linearGradient-1">
            <stop stop-color="#FD9733" offset="0%"></stop>
            <stop stop-color="#F7B500" offset="100%"></stop>
        </linearGradient>
        <filter x="-36.4%" y="-33.3%" width="172.7%" height="166.7%" filterUnits="objectBoundingBox" id="filter-2">
            <feOffset dx="0" dy="1" in="SourceAlpha" result="shadowOffsetOuter1"></feOffset>
            <feGaussianBlur stdDeviation="0.5" in="shadowOffsetOuter1" result="shadowBlurOuter1"></feGaussianBlur>
            <feColorMatrix values="0 0 0 0 0.969235628   0 0 0 0 0.501435077   0 0 0 0 0  0 0 0 0.574420209 0" type="matrix" in="shadowBlurOuter1" result="shadowMatrixOuter1"></feColorMatrix>
            <feMerge>
                <feMergeNode in="shadowMatrixOuter1"></feMergeNode>
                <feMergeNode in="SourceGraphic"></feMergeNode>
            </feMerge>
        </filter>
        <filter x="-8.7%" y="-34.4%" width="117.5%" height="168.8%" filterUnits="objectBoundingBox" id="filter-3">
            <feOffset dx="0" dy="1" in="SourceAlpha" result="shadowOffsetOuter1"></feOffset>
            <feGaussianBlur stdDeviation="0.5" in="shadowOffsetOuter1" result="shadowBlurOuter1"></feGaussianBlur>
            <feColorMatrix values="0 0 0 0 0.969235628   0 0 0 0 0.501435077   0 0 0 0 0  0 0 0 0.574420209 0" type="matrix" in="shadowBlurOuter1" result="shadowMatrixOuter1"></feColorMatrix>
            <feMerge>
                <feMergeNode in="shadowMatrixOuter1"></feMergeNode>
                <feMergeNode in="SourceGraphic"></feMergeNode>
            </feMerge>
        </filter>
    </defs>
    <g id="弹窗设计" stroke="none" stroke-width="1" fill="none" fill-rule="evenodd">
        <g id="Rewards备份" fill-rule="nonzero">
            <path d="M12.48,0 L67.6,0 C73.3437614,0 78,4.4771525 78,10 C78,15.5228475 73.3437614,20 67.6,20 L0,20 L0,20 L0,12 C0,5.372583 5.58748632,0 12.48,0 Z" id="矩形" fill="url(#linearGradient-1)"></path>
            <g id="编组-29" transform="translate(8.216000, 4.000000)" fill="#FFFFFF">
                <g id="编组" filter="url(#filter-2)" transform="translate(53.784000, 0.000000)">
                    <path d="M5.57584516,12 C2.50132012,12 0,9.53272951 0,6.49974278 C0,3.46727049 2.50132012,1 5.57584516,1 C6.50706737,1 7.42971636,1.23149952 8.24417144,1.66929085 C8.64385455,1.88467115 8.79388574,2.38419568 8.57852668,2.78443263 C8.36522518,3.18535551 7.86592135,3.33523002 7.46400921,3.11933528 C6.88857527,2.80964036 6.23598242,2.64621884 5.57584516,2.64621884 C3.40888027,2.64621884 1.64605657,4.37492011 1.64605657,6.49974278 C1.64605657,8.62507989 3.40888027,10.3537812 5.57584516,10.3537812 C7.36764631,10.3537812 8.93225737,9.16678878 9.38012193,7.46758227 C9.49688907,7.02824762 9.94801145,6.76656742 10.3864455,6.88180273 C10.8257368,6.99806694 11.08842,7.4482049 10.9726817,7.88771104 C10.3327772,10.3086816 8.1135157,12 5.57584516,12 L5.57584516,12 Z" id="路径"></path>
                    <path d="M10.9735396,4.45340448 L9.42102891,0.254756763 C9.31319151,-0.036879883 8.94480504,-0.090791263 8.76635153,0.159077863 L6.07702593,3.92367457 C5.89857243,4.1735437 6.0479794,4.53381155 6.34261901,4.56398721 L10.5846292,4.99803821 C10.8655283,5.02692588 11.076333,4.73160928 10.9735396,4.45340448 L10.9735396,4.45340448 Z" id="路径"></path>
                </g>
                <g id="新奖励" filter="url(#filter-3)" transform="translate(0.000000, 0.656000)">
                    <path d="M0.984,7.716 C0.78,8.316 0.42,8.952 0,9.384 C0.312,9.576 0.852,9.972 1.104,10.188 C1.56,9.672 2.028,8.832 2.316,8.064 L0.984,7.716 Z M3.792,2.64 C3.696,3.024 3.516,3.504 3.372,3.876 L2.244,3.876 L2.688,3.756 C2.64,3.444 2.508,2.988 2.352,2.64 L3.792,2.64 Z M5.784,7.476 L5.784,6.024 L3.948,6.024 L3.948,5.292 L6.024,5.292 L6.024,3.876 L4.92,3.876 C5.064,3.564 5.22,3.204 5.4,2.808 L4.488,2.64 L5.832,2.64 L5.832,1.236 L3.996,1.236 C3.864,0.84 3.696,0.372 3.54,0 L1.992,0.36 C2.088,0.624 2.196,0.936 2.28,1.236 L0.372,1.236 L0.372,2.64 L1.848,2.64 L0.924,2.868 C1.056,3.168 1.164,3.564 1.212,3.876 L0.18,3.876 L0.18,5.292 L2.376,5.292 L2.376,6.024 L0.264,6.024 L0.264,7.476 L2.376,7.476 L2.376,9.744 C2.376,9.876 2.34,9.912 2.208,9.912 C2.076,9.912 1.68,9.912 1.356,9.9 C1.548,10.296 1.752,10.896 1.8,11.304 C2.484,11.304 3,11.28 3.42,11.052 C3.84,10.824 3.948,10.452 3.948,9.78 L3.948,7.476 L5.784,7.476 Z M11.46,4.008 L7.944,4.008 L7.944,2.34 C9.072,2.124 10.26,1.812 11.244,1.416 L9.924,0.132 C9.036,0.564 7.632,0.972 6.324,1.224 L6.324,5.532 C6.324,6.6 6.288,7.896 5.988,9.012 C5.772,8.592 5.424,8.028 5.112,7.572 L3.996,8.208 C4.32,8.736 4.716,9.468 4.908,9.924 L5.904,9.3 C5.784,9.648 5.64,9.984 5.448,10.284 C5.808,10.476 6.516,11.016 6.792,11.316 C7.776,9.852 7.944,7.392 7.944,5.616 L8.76,5.616 L8.76,11.424 L10.452,11.424 L10.452,5.616 L11.46,5.616 L11.46,4.008 Z" id="新"></path>
                    <path d="M19.856,2.352 C19.688,1.872 19.232,1.164 18.836,0.66 L17.552,1.356 C17.924,1.908 18.332,2.652 18.488,3.132 L19.856,2.352 Z M23.036,3.444 C23.324,3.732 23.636,4.08 23.9,4.416 C23.228,4.632 22.46,4.776 21.632,4.884 L21.632,2.388 C21.932,2.724 22.328,3.228 22.544,3.54 C23.024,3.264 23.504,2.904 23.96,2.508 L26.624,2.508 C26.288,3.024 25.844,3.432 25.316,3.768 C25.016,3.408 24.608,3 24.272,2.7 L23.036,3.444 Z M27.776,1.032 L27.488,1.068 L25.316,1.068 C25.436,0.912 25.544,0.756 25.652,0.6 L24.008,0.036 C23.564,0.792 22.604,1.68 21.632,2.208 L21.632,0.084 L19.94,0.084 L19.94,2.916 C18.98,3.444 18.032,3.96 17.384,4.26 L18.08,5.784 C18.656,5.436 19.304,5.04 19.94,4.62 L19.94,6.348 L21.632,6.348 L21.632,4.896 C21.932,5.232 22.376,5.928 22.532,6.336 C25.568,5.808 27.908,4.5 28.82,1.5 L27.776,1.032 Z M28.52,8.448 L28.52,6.936 L23.936,6.936 C23.96,6.744 23.972,6.54 23.996,6.336 L22.172,6.336 C22.148,6.552 22.136,6.744 22.112,6.936 L17.66,6.936 L17.66,8.448 L21.596,8.448 C21.044,9.204 19.928,9.684 17.492,9.984 C17.804,10.344 18.188,11.004 18.308,11.448 C20.984,11.04 22.364,10.356 23.108,9.348 C24.128,10.572 25.556,11.184 27.812,11.412 C28.028,10.944 28.472,10.224 28.844,9.864 C26.636,9.78 25.124,9.372 24.296,8.448 L28.52,8.448 Z" id="奖"></path>
                    <path d="M39.376,6.72 C39.316,8.76 39.232,9.54 39.088,9.744 C38.992,9.888 38.908,9.924 38.764,9.912 C38.656,9.924 38.512,9.912 38.344,9.9 C38.704,8.988 38.884,7.932 38.98,6.72 L39.376,6.72 Z M36.928,4.476 L37.504,4.476 C37.48,6.888 37.408,8.736 36.52,10.032 C36.868,8.472 36.928,6.624 36.928,5.22 L36.928,4.476 Z M43.6,2.892 C43.624,2.064 43.624,1.188 43.624,0.276 L42.028,0.276 C42.028,1.2 42.028,2.076 42.016,2.892 L41.116,2.892 L41.116,4.476 L41.98,4.476 C41.884,6.648 41.584,8.376 40.66,9.696 C40.768,8.94 40.816,7.728 40.876,5.844 C40.888,5.676 40.9,5.268 40.9,5.268 L39.052,5.268 C39.064,5.004 39.064,4.74 39.064,4.476 L40.876,4.476 L40.876,2.964 L36.928,2.964 L36.928,2.304 L41.212,2.304 L41.212,0.732 L35.356,0.732 L35.356,5.232 C35.356,6.912 35.308,9.18 34.612,10.704 C35.008,10.848 35.728,11.268 36.028,11.532 C36.16,11.244 36.28,10.92 36.376,10.572 C36.712,10.86 37.084,11.304 37.264,11.628 C37.66,11.22 37.972,10.752 38.212,10.224 C38.332,10.56 38.416,10.956 38.428,11.256 C38.884,11.268 39.304,11.256 39.58,11.196 C39.904,11.136 40.144,11.016 40.384,10.692 C40.42,10.644 40.444,10.596 40.468,10.536 C40.804,10.824 41.152,11.208 41.344,11.52 C42.904,9.864 43.396,7.476 43.552,4.476 L44.188,4.476 C44.128,8.064 44.044,9.408 43.84,9.708 C43.72,9.876 43.624,9.924 43.456,9.924 C43.24,9.924 42.88,9.924 42.472,9.888 C42.724,10.332 42.904,11.004 42.928,11.46 C43.468,11.472 43.972,11.472 44.32,11.388 C44.716,11.304 44.98,11.16 45.268,10.728 C45.616,10.2 45.7,8.424 45.784,3.6 C45.784,3.408 45.796,2.892 45.796,2.892 L43.6,2.892 Z" id="励"></path>
                </g>
            </g>
        </g>
    </g>
</svg>