<?xml version="1.0" encoding="UTF-8"?>
<svg width="347px" height="439px" viewBox="0 0 347 439" version="1.1" xmlns="http://www.w3.org/2000/svg" xmlns:xlink="http://www.w3.org/1999/xlink">
    <!-- Generator: Sketch 60 (88103) - https://sketch.com -->
    <title>占位图</title>
    <desc>Created with Sketch.</desc>
    <g id="页面-1" stroke="none" stroke-width="1" fill="none" fill-rule="evenodd">
        <g id="抵押备份" transform="translate(-224.000000, -901.000000)">
            <g id="编组-3备份-4" transform="translate(225.000000, 902.000000)">
                <g id="占位图">
                    <rect id="矩形" stroke="#F1F1F1" fill="#FFFFFF" x="-0.5" y="-0.5" width="346" height="438" rx="10"></rect>
                    <rect id="矩形" fill="#F2F3F5" x="20" y="19" width="163" height="23" rx="4"></rect>
                    <rect id="矩形备份-4" fill="#F2F3F5" x="195" y="19" width="130" height="23" rx="4"></rect>
                    <rect id="矩形备份-3" fill="#F2F3F5" x="20" y="177" width="305" height="30" rx="4"></rect>
                    <rect id="矩形备份-10" fill="#F2F3F5" x="20" y="227" width="305" height="30" rx="4"></rect>
                    <rect id="矩形备份-2" fill="#F2F3F5" x="178" y="137" width="147" height="30" rx="4"></rect>
                    <rect id="矩形" fill="#F2F3F5" x="20" y="137" width="147" height="30" rx="4"></rect>
                    <rect id="button" fill="#F2F3F5" x="20" y="277" width="142" height="40" rx="4"></rect>
                    <rect id="button备份" fill="#F2F3F5" x="20" y="327" width="305" height="40" rx="4"></rect>
                    <rect id="button备份-2" fill="#F2F3F5" x="20" y="377" width="305" height="40" rx="4"></rect>
                    <rect id="button备份-7" fill="#F2F3F5" x="183" y="277" width="142" height="40" rx="4"></rect>
                    <rect id="矩形" fill="#F2F3F5" x="20" y="67" width="50" height="50" rx="4"></rect>
                    <rect id="矩形备份-5" fill="#F2F3F5" x="80" y="70" width="76" height="15" rx="4"></rect>
                    <rect id="矩形备份-8" fill="#F2F3F5" x="249" y="74" width="76" height="15" rx="4"></rect>
                    <rect id="矩形备份-9" fill="#F2F3F5" x="236" y="98" width="89" height="15" rx="4"></rect>
                    <rect id="矩形备份-6" fill="#F2F3F5" x="80" y="95" width="22" height="22" rx="4"></rect>
                </g>
            </g>
        </g>
    </g>
</svg>