<?xml version="1.0" encoding="UTF-8"?>
<svg width="24px" height="24px" viewBox="0 0 24 24" version="1.1" xmlns="http://www.w3.org/2000/svg" xmlns:xlink="http://www.w3.org/1999/xlink">
    <!-- Generator: Sketch 60 (88103) - https://sketch.com -->
    <title>语言</title>
    <desc>Created with Sketch.</desc>
    <g id="页面-1" stroke="none" stroke-width="1" fill="none" fill-rule="evenodd">
        <g id="icon" transform="translate(-184.000000, -1912.000000)" fill="#212121" fill-rule="nonzero">
            <g id="duoyuyan" transform="translate(184.000000, 1912.000000)">
                <path d="M20.9948005,19.8367559 C22.8965328,17.6601288 23.9353166,14.9023552 23.9353166,11.9846717 C23.9353166,8.79168222 22.6918899,5.78974039 20.4340744,3.53192491 C18.2109873,1.30881046 15.2662776,0.0700708929 12.1282726,0.0324918214 C12.0767144,0.0164295804 11.8526378,0.0166214464 11.8007506,0.0329029821 C8.67532682,0.0788969196 5.74377386,1.31675936 3.5286083,3.53192491 C1.30883788,5.75172273 0.0704546518,8.6908957 0.0293396518,11.823638 C0.017854875,11.8678229 0.0176355804,12.0540463 0.0287640536,12.0975734 C0.0577638214,15.248324 1.29746274,18.2062728 3.5286083,20.4374184 C5.78642379,22.6952339 8.78833821,23.9386606 11.9813551,23.9386606 C15.1743445,23.9386606 18.1762863,22.6952339 20.4341018,20.4374184 C20.5985617,20.2729585 20.7569915,20.1040855 20.910597,19.9319234 C20.9241924,19.9197808 20.9374314,19.9070626 20.9500126,19.8933302 C20.9665408,19.8753218 20.9811229,19.8562445 20.9948005,19.8367559 Z M1.13697726,12.5100937 L6.15933667,12.5100937 C6.19475038,14.269349 6.40720519,15.9189642 6.76216452,17.3881122 C5.10975343,17.8350868 4.06165031,18.4159319 3.51904221,18.7784564 C2.12436723,17.0447198 1.25026272,14.8756304 1.13697726,12.5100937 Z M3.50574836,5.20736038 C4.04388865,5.57048791 5.09259477,6.15722609 6.75594244,6.60718846 C6.40778079,8.05703973 6.19806696,9.68160228 6.16013154,11.4134201 L1.13908781,11.4134201 C1.26098004,9.07315538 2.12779347,6.92711783 3.50574836,5.20736038 Z M22.8236223,11.4133927 L17.8025511,11.4133927 C17.7646431,9.6822053 17.555039,8.05819096 17.207124,6.60872341 C18.8666342,6.16158429 19.918794,5.57895758 20.4633757,5.21530929 C21.8376028,6.93375104 22.7018945,9.07677351 22.8236223,11.4133927 Z M16.7056582,11.4133927 L12.5134103,11.4133927 L12.5134103,7.23378078 C13.9118679,7.20445208 15.1143989,7.06090599 16.1367914,6.85788021 C16.4732216,8.25439165 16.6683807,9.80080832 16.7056582,11.4133927 Z M12.5134103,6.13702495 L12.5134103,1.20317237 C13.5002247,1.48171267 14.4628634,2.52118163 15.2168026,4.15002011 C15.4528026,4.6599007 15.6626534,5.21185562 15.8453136,5.79790856 C14.9070971,5.97930787 13.8016523,6.10882007 12.5134103,6.13702495 Z M11.4167093,1.21268365 L11.4167093,6.13603819 C10.1442554,6.10585979 9.04941833,5.97527861 8.11884924,5.79311183 C8.30118048,5.20884054 8.51053797,4.6584754 8.74588012,4.1499653 C9.49156883,2.53908035 10.4413249,1.50470965 11.4167093,1.21268365 Z M11.4167093,7.23323255 L11.4167093,11.4133927 L7.25702443,11.4133927 C7.294302,9.80053422 7.48951594,8.25387086 7.82605578,6.85716753 C8.83951264,7.05901468 10.0309152,7.2023415 11.4167093,7.23323255 Z M7.25606507,12.5100937 L11.4167093,12.5100937 L11.4167093,16.7601219 C10.034314,16.7921094 8.84474794,16.9359296 7.8321956,17.1378864 C7.48866624,15.7212834 7.29090319,14.1493754 7.25606507,12.5100937 Z M11.4167093,17.8572889 L11.4167093,22.7566597 C10.4412975,22.4646337 9.49156883,21.430263 8.74590753,19.8193506 C8.51341602,19.3170626 8.30636097,18.7737966 8.12561952,18.1974468 C9.053475,18.017281 10.1457082,17.8880429 11.4167093,17.8572889 Z M12.5134103,22.766171 L12.5134103,17.8555895 C13.7965541,17.8830543 14.9001076,18.0126213 15.8379677,18.1945962 C15.657007,18.7719876 15.4496504,19.3162129 15.2168026,19.8193232 C14.4628634,21.4481617 13.5002247,22.4876307 12.5134103,22.766171 Z M12.5134103,16.7587514 L12.5134103,12.5100937 L16.7066176,12.5100937 C16.6718343,14.146607 16.4746469,15.7159385 16.1321865,17.1307049 C15.1112741,16.92894 13.9103329,16.7869015 12.5134103,16.7587514 Z M17.8033734,12.5100937 L22.8257328,12.5100937 C22.7126667,14.8709433 21.8418239,17.0361679 20.4519731,18.7681776 C19.9036911,18.4020624 18.8546013,17.8226701 17.2027658,17.3788476 C17.5563546,15.9120295 17.7680146,14.265676 17.8033734,12.5100937 Z M19.728185,4.38596529 C19.2372173,4.69589001 18.3270413,5.1722756 16.9194836,5.55097197 C16.4026408,3.86196854 15.6843895,2.47050054 14.8285401,1.50695724 C16.7142924,2.01993517 18.3973205,3.0293902 19.728185,4.38596529 Z M9.13414262,1.50695727 C8.27952662,2.46910264 7.56207019,3.8579119 7.04541935,5.54362612 C5.6417539,5.16216134 4.73193418,4.68382963 4.24411864,4.3760977 C5.57347559,3.0244838 7.25296776,2.01870174 9.13414262,1.50695727 Z M4.25672721,19.6061557 C4.74648887,19.2971629 5.65222449,18.8231894 7.0513399,18.4453702 C7.56755221,20.1222858 8.28284322,21.503941 9.13414262,22.4623861 C7.25891571,21.9522588 5.58408327,20.9513009 4.25672721,19.6061557 Z M14.8285401,22.4623861 C15.6803603,21.5033654 16.3959802,20.1206138 16.9122748,18.4423277 C18.3047295,18.8179541 19.2150974,19.2895978 19.7122872,19.599687 C18.383917,20.9480665 16.7067547,21.9514639 14.8285401,22.4623861 Z" id="形状"></path>
            </g>
        </g>
    </g>
</svg>