<?xml version="1.0" encoding="UTF-8"?>
<svg width="22px" height="24px" viewBox="0 0 22 24" version="1.1" xmlns="http://www.w3.org/2000/svg" xmlns:xlink="http://www.w3.org/1999/xlink">
    <!-- Generator: Sketch 60 (88103) - https://sketch.com -->
    <title>Notification</title>
    <desc>Created with Sketch.</desc>
    <g id="页面-1" stroke="none" stroke-width="1" fill="none" fill-rule="evenodd">
        <g id="icon" transform="translate(-397.000000, -1855.000000)" fill="#F7B500">
            <path d="M417.616393,1874.2 L398.028571,1874.2 C397.485341,1874.2 397,1873.72534 397,1873.18947 C397,1872.65361 397.485341,1872.17895 398.028571,1872.17895 L399.057143,1872.17895 L399.057143,1864.21265 C399.057143,1860.60327 402.385246,1857.82832 405.837705,1856.93568 C405.837705,1855.86663 406.716254,1855 407.8,1855 C408.883746,1855 409.762295,1855.86663 409.762295,1856.93568 C413.219672,1857.82832 416.542857,1860.60327 416.542857,1864.21265 L416.542857,1872.17895 L417.616393,1872.17895 C418.159624,1872.17895 418.6,1872.65361 418.6,1873.18947 C418.6,1873.72534 418.159624,1874.2 417.616393,1874.2 Z M407.800041,1878.99905 C406.881808,1879.0211 405.877828,1878.65018 405.229296,1877.97279 C404.580764,1877.2954 404.177203,1876.75629 404.200998,1875.8 L411.399085,1875.8 C411.421795,1876.75685 411.020149,1877.2955 410.370787,1877.97279 C409.721425,1878.65008 408.718786,1879.02134 407.800041,1878.99905 Z" id="Notification"></path>
        </g>
    </g>
</svg>