<?xml version="1.0" encoding="UTF-8"?>
<svg width="20px" height="18px" viewBox="0 0 20 18" version="1.1" xmlns="http://www.w3.org/2000/svg" xmlns:xlink="http://www.w3.org/1999/xlink">
    <title>编组备份 3@2x</title>
    <g id="弹窗设计" stroke="none" stroke-width="1" fill="none" fill-rule="evenodd">
        <g id="一键领取区域" transform="translate(-1543.000000, -322.000000)" fill="#F7B500" fill-rule="nonzero">
            <g id="编组-8" transform="translate(196.000000, 299.000000)">
                <g id="编组备份-3" transform="translate(1347.000000, 23.000000)">
                    <path d="M18.6,2.39999999 C18.2307692,2.30769229 17.8615385,2.53846153 17.7692308,2.90769231 L17.2615384,4.80000001 C15.6461538,1.8923077 12.5538461,0 9.13846154,0 C4.10769229,0 0,4.01538462 0,9 C0,13.9846154 4.10769231,18 9.13846154,18 C13.0153846,18 16.4769231,15.6 17.7692308,12.0461538 C17.9076923,11.6769231 17.7230769,11.3076923 17.3538461,11.1692308 C16.9846154,11.0307692 16.6153846,11.2153846 16.4769231,11.5846154 C15.3692308,14.5846154 12.4153846,16.6153846 9.13846154,16.6153846 C4.84615385,16.6153846 1.38461538,13.2 1.38461538,9 C1.38461538,4.80000001 4.89230769,1.38461538 9.13846154,1.38461538 C12.2769231,1.38461538 15.1384615,3.27692308 16.2923077,6.09230769 L13.5230769,5.3076923 C13.1538461,5.2153846 12.7846154,5.44615384 12.6923077,5.81538462 C12.6,6.18461539 12.8307692,6.55384615 13.2,6.64615385 L17.2153846,7.70769231 C17.2615384,7.70769231 17.3538461,7.75384615 17.4,7.75384615 C17.5384615,7.75384615 17.6307692,7.70769231 17.7692308,7.66153845 C17.9076923,7.56923075 18.0461538,7.43076922 18.0923077,7.24615384 L19.1538461,3.23076922 C19.1538461,2.86153845 18.9692308,2.49230769 18.6,2.39999999 Z" id="路径"></path>
                </g>
            </g>
        </g>
    </g>
</svg>