<?xml version="1.0" encoding="UTF-8"?>
<svg width="24px" height="24px" viewBox="0 0 24 24" version="1.1" xmlns="http://www.w3.org/2000/svg" xmlns:xlink="http://www.w3.org/1999/xlink">
    <!-- Generator: Sketch 60 (88103) - https://sketch.com -->
    <title>成功</title>
    <desc>Created with Sketch.</desc>
    <g id="页面-1" stroke="none" stroke-width="1" fill="none" fill-rule="evenodd">
        <g id="弹窗" transform="translate(-183.000000, -2829.000000)" fill="#03CD93" fill-rule="nonzero">
            <g id="编组-4备份-7" transform="translate(116.000000, 2758.000000)">
                <g id="编组">
                    <g id="编组-11">
                        <g id="成功" transform="translate(67.000000, 71.000000)">
                            <path d="M23.0322524,7.33322524 C22.4275649,5.90566038 21.5653007,4.62473467 20.463296,3.52275943 C19.3612913,2.4207842 18.080395,1.55849057 16.6528302,0.953803066 C15.1751474,0.327682783 13.6044222,0.0128242925 11.9872347,0.0128242925 C10.3700472,0.0128242925 8.79932193,0.33125 7.32163915,0.953803066 C5.89407429,1.55849057 4.61314858,2.42075472 3.51117335,3.52275943 C2.40919811,4.62473467 1.54690448,5.90566038 0.942216981,7.33322524 C0.316096698,8.81090802 0.00123820755,10.3816333 0.00123820755,11.9988208 C0.00123820755,13.6160083 0.319663915,15.1867335 0.942216981,16.6644163 C1.54690448,18.0919811 2.40916863,19.3729068 3.51117335,20.4748821 C4.61314858,21.5768573 5.89407429,22.4391509 7.32163915,23.0438384 C8.79932193,23.6699587 10.3700472,23.9848172 11.9872347,23.9848172 C13.6044222,23.9848172 15.1751474,23.6663915 16.6528302,23.0438384 C18.080395,22.4391509 19.3613208,21.5768868 20.463296,20.4748821 C21.5652712,19.3729068 22.4275649,18.0919811 23.0322524,16.6644163 C23.6583726,15.1867335 23.9732311,13.6160083 23.9732311,11.9988208 C23.9732311,10.3816333 23.6548054,8.81090802 23.0322524,7.33322524 Z M18.7029776,8.75362618 L10.4415684,17.0150354 C10.1088443,17.3477594 9.5614092,17.3477594 9.22865566,17.0150354 L5.00669222,12.7930719 C4.67396816,12.4603479 4.67396816,11.9129127 5.00669222,11.5801592 C5.33941627,11.2474351 5.88685142,11.2474351 6.21960495,11.5801592 L9.8332842,15.1938384 L17.4864682,7.54065448 C17.8191922,7.20793042 18.3666274,7.20793042 18.6993809,7.54065448 C19.0357017,7.87337854 19.0357017,8.41721698 18.7029776,8.75356722 L18.7029776,8.75362618 Z" id="形状"></path>
                        </g>
                    </g>
                </g>
            </g>
        </g>
    </g>
</svg>