<?xml version="1.0" encoding="UTF-8"?>
<svg width="17px" height="18px" viewBox="0 0 17 18" version="1.1" xmlns="http://www.w3.org/2000/svg" xmlns:xlink="http://www.w3.org/1999/xlink">
    <!-- Generator: Sketch 60 (88103) - https://sketch.com -->
    <title>sousuo-2</title>
    <desc>Created with Sketch.</desc>
    <g id="页面-1" stroke="none" stroke-width="1" fill="none" fill-rule="evenodd">
        <g id="icon" transform="translate(-134.000000, -1985.000000)" fill="#F7B500" fill-rule="nonzero">
            <g id="sousuo-2" transform="translate(134.000000, 1985.000000)">
                <path d="M8.12905688,16.4489016 C3.66737077,16.4489016 0.0169003196,12.7517499 0.0169003196,8.23300902 C0.0169003196,3.7142681 3.66737077,0.0171164362 8.12905688,0.0171164362 C12.590743,0.0171164362 16.2412134,3.7142681 16.2412134,8.23300902 C16.2412134,12.7517499 12.590743,16.4489016 8.12905688,16.4489016 Z M8.12905688,15.0795862 C11.8471286,15.0795862 14.8891874,11.9986265 14.8891874,8.23300902 C14.8891874,4.46739157 11.8471287,1.38643187 8.12905688,1.38643187 C4.41098511,1.38643187 1.36892642,4.46739159 1.36892642,8.23300902 C1.36892642,11.9986264 4.41098513,15.0795862 8.12905688,15.0795862 Z M13.1315534,16.1750385 C12.8611482,15.9011754 12.9287495,15.421915 13.1991547,15.2165177 C13.4695599,15.0111204 13.9427691,15.0111204 14.145573,15.2849835 L15.4299978,16.8596962 C15.700403,17.1335593 15.6328017,17.6128197 15.3623965,17.818217 C15.0919913,18.0236144 14.6187821,18.0236144 14.4159782,17.7497513 L13.1315534,16.1750385 Z" id="形状"></path>
            </g>
        </g>
    </g>
</svg>