<?xml version="1.0" encoding="UTF-8"?>
<svg width="32px" height="32px" viewBox="0 0 32 32" version="1.1" xmlns="http://www.w3.org/2000/svg" xmlns:xlink="http://www.w3.org/1999/xlink">
    <!-- Generator: Sketch 60 (88103) - https://sketch.com -->
    <title>未选中</title>
    <desc>Created with Sketch.</desc>
    <g id="页面-1" stroke="none" stroke-width="1" fill="none" fill-rule="evenodd">
        <g id="icon" transform="translate(-288.000000, -1908.000000)" fill-rule="nonzero">
            <g id="未选中" transform="translate(289.000000, 1909.000000)">
                <path d="M26.5384925,0 L3.46156947,0 C1.55307909,0 0,1.55307909 0,3.46156947 L0,26.5384925 C0,28.4469209 1.55307909,30 3.46156947,30 L26.5384925,30 C28.4469209,30 30,28.4469209 30,26.5384925 L30,3.46156947 C30,1.55301707 28.4469829,0 26.5384925,0 Z" id="形状" stroke="#E5E5E5"></path>
                <path d="M22.6687878,12.024463 L13.4809994,21.6468486 C13.4787171,21.6492131 13.4740908,21.6504274 13.4718085,21.6540062 C13.4683542,21.6563707 13.4683542,21.6611638 13.4648999,21.6635284 C13.3914346,21.7372134 13.3008213,21.7823958 13.2158828,21.8323713 C13.1734444,21.857359 13.1390249,21.8953838 13.0942425,21.913214 C12.9565645,21.9702832 12.8108059,22 12.6651089,22 C12.51824,22 12.3701991,21.9702832 12.2313491,21.9108494 C12.1854564,21.8906547 12.1487546,21.8502014 12.1051442,21.8252776 C12.0202057,21.7753661 11.9318747,21.731334 11.8584094,21.6564347 C11.8561271,21.6540702 11.8549551,21.6492771 11.8526728,21.6469125 C11.8503905,21.6433337 11.8457642,21.6433337 11.8434819,21.6397549 L7.32471844,16.8285621 C6.8829397,16.3577574 6.8932409,15.6052497 7.34766478,15.147546 C7.80208865,14.6910565 8.52724236,14.6993645 8.97019306,15.1713195 L12.6730661,19.1135016 L21.0381173,10.352969 C21.4833503,9.88574319 22.2108479,9.88216439 22.6606455,10.3434468 C23.1094562,10.8058796 23.1140208,11.5584513 22.6687878,12.024463 Z" id="路径"></path>
            </g>
        </g>
    </g>
</svg>