<?xml version="1.0" encoding="UTF-8"?>
<svg width="24px" height="24px" viewBox="0 0 24 24" version="1.1" xmlns="http://www.w3.org/2000/svg" xmlns:xlink="http://www.w3.org/1999/xlink">
    <title>编组备份 5@2x</title>
    <g id="弹窗设计" stroke="none" stroke-width="1" fill="none" fill-rule="evenodd">
        <g id="确认购买-授权与支付" transform="translate(-1321.000000, -535.000000)" fill-rule="nonzero">
            <g id="编组-6备份-2" transform="translate(1300.000000, 197.000000)">
                <g id="编组备份-5" transform="translate(21.000000, 338.000000)">
                    <path d="M12,0 C5.38536584,0 0,5.38536584 0,12 C0,18.6146342 5.38536584,24 12,24 C18.6146342,24 24,18.6146342 24,12 C24,5.38536584 18.6146342,0 12,0 Z M12,22.2439024 C6.3804878,22.2439024 1.75609756,17.6195122 1.75609756,12 C1.75609756,6.3804878 6.3804878,1.75609756 12,1.75609756 C17.6195122,1.75609756 22.2439024,6.3804878 22.2439024,12 C22.2439024,17.6195122 17.6195122,22.2439024 12,22.2439024 Z" id="形状" fill="#CCCCCC"></path>
                    <g id="2" transform="translate(8.598000, 6.752000)" fill="#FE9C02">
                        <path d="M0.028,10.108 L0.028,8.666 C0.270666667,8.45133333 0.644,8.127 1.148,7.693 C1.652,7.259 2.03,6.93 2.282,6.706 C2.534,6.482 2.84433333,6.18566667 3.213,5.817 C3.58166667,5.44833333 3.85466667,5.138 4.032,4.886 C4.48933333,4.23266667 4.718,3.654 4.718,3.15 C4.718,2.16066667 4.26066667,1.666 3.346,1.666 C2.898,1.666 2.548,1.81533333 2.296,2.114 C2.044,2.41266667 1.91333333,2.82333333 1.904,3.346 L0,3.346 C0.00933333333,2.254 0.329,1.42333333 0.959,0.854 C1.589,0.284666667 2.41266667,0 3.43,0 C4.44733333,0 5.24533333,0.289333333 5.824,0.868 C6.40266667,1.44666667 6.692,2.17466667 6.692,3.052 C6.692,3.70533333 6.524,4.312 6.188,4.872 C6.02,5.17066667 5.85666667,5.43433333 5.698,5.663 C5.53933333,5.89166667 5.313,6.15533333 5.019,6.454 C4.725,6.75266667 4.494,6.986 4.326,7.154 C4.158,7.322 3.90366667,7.55766667 3.563,7.861 C3.22233333,8.16433333 2.98666667,8.37666667 2.856,8.498 L6.93,8.498 L6.93,10.108 L0.028,10.108 Z"></path>
                    </g>
                </g>
            </g>
        </g>
    </g>
</svg>