<?xml version="1.0" encoding="UTF-8"?>
<svg width="24px" height="24px" viewBox="0 0 24 24" version="1.1" xmlns="http://www.w3.org/2000/svg" xmlns:xlink="http://www.w3.org/1999/xlink">
    <title>编组备份 5@2x</title>
    <g id="弹窗设计" stroke="none" stroke-width="1" fill="none" fill-rule="evenodd">
        <g id="确认购买-授权与支付" transform="translate(-1321.000000, -400.000000)" fill-rule="nonzero">
            <g id="编组-6备份-2" transform="translate(1300.000000, 197.000000)">
                <g id="编组备份-5" transform="translate(21.000000, 203.000000)">
                    <path d="M12,0 C5.38536584,0 0,5.38536584 0,12 C0,18.6146342 5.38536584,24 12,24 C18.6146342,24 24,18.6146342 24,12 C24,5.38536584 18.6146342,0 12,0 Z M12,22.2439024 C6.3804878,22.2439024 1.75609756,17.6195122 1.75609756,12 C1.75609756,6.3804878 6.3804878,1.75609756 12,1.75609756 C17.6195122,1.75609756 22.2439024,6.3804878 22.2439024,12 C22.2439024,17.6195122 17.6195122,22.2439024 12,22.2439024 Z" id="形状" fill="#CCCCCC"></path>
                    <g id="1" transform="translate(9.837000, 7.060000)" fill="#F7B500">
                        <polygon points="1.484 9.94 1.484 1.806 0 1.806 0 0 3.5 0 3.5 9.94"></polygon>
                    </g>
                </g>
            </g>
        </g>
    </g>
</svg>