<?xml version="1.0" encoding="UTF-8"?>
<svg width="38px" height="38px" viewBox="0 0 38 38" version="1.1" xmlns="http://www.w3.org/2000/svg" xmlns:xlink="http://www.w3.org/1999/xlink">
    <!-- Generator: Sketch 60 (88103) - https://sketch.com -->
    <title>编组 3备份</title>
    <desc>Created with Sketch.</desc>
    <g id="官网设计" stroke="none" stroke-width="1" fill="none" fill-rule="evenodd">
        <g id="Stablock主页中文" transform="translate(-1449.000000, -6152.000000)">
            <g id="底部信息栏目" transform="translate(0.000000, 6128.000000)">
                <g id="编组-5备份" transform="translate(1449.000000, 25.000000)">
                    <g id="编组-3备份" transform="translate(0.921249, 0.000000)">
                        <ellipse id="椭圆形" stroke="#F7B500" cx="17.9685797" cy="17.9371177" rx="17.9685797" ry="17.9371177"></ellipse>
                        <g id="telegram-2" transform="translate(4.964640, 9.869853)" fill="#F7B500" fill-rule="nonzero">
                            <path d="M8.23657317,17.2302122 L8.57670301,12.1008194 L17.9059782,3.70947222 C18.318993,3.33355926 17.8209458,3.1516659 17.2743086,3.47907395 L5.75848444,10.7426823 L0.778011988,9.16627312 C-0.290967476,8.86311751 -0.303114951,8.12341785 1.02096185,7.58986396 L20.4205095,0.120109856 C21.3072765,-0.280055543 22.1576011,0.338381893 21.8174712,1.69651899 L18.5133529,17.2302122 C18.2825505,18.3336986 17.6144384,18.6004756 16.6912289,18.0911742 L11.6621664,14.3805496 L9.24481515,16.7209108 C8.9654228,16.999814 8.73462041,17.2302122 8.23657317,17.2302122 Z" id="路径"></path>
                        </g>
                    </g>
                </g>
            </g>
        </g>
    </g>
</svg>