<?xml version="1.0" encoding="UTF-8"?>
<svg width="16px" height="15px" viewBox="0 0 16 15" version="1.1" xmlns="http://www.w3.org/2000/svg" xmlns:xlink="http://www.w3.org/1999/xlink">
    <title>warning-filling备份@2x</title>
    <g id="弹窗设计" stroke="none" stroke-width="1" fill="none" fill-rule="evenodd">
        <g id="一键领取区域" transform="translate(-217.000000, -388.000000)" fill="#666666" fill-rule="nonzero">
            <g id="编组-3" transform="translate(217.000000, 385.000000)">
                <g id="warning-filling备份" transform="translate(0.000000, 3.000000)">
                    <path d="M15.7362637,11.8815789 L9.71916973,0.986842099 C9.36752137,0.355263158 8.7032967,0 8,0 C7.2967033,0 6.63247863,0.394736836 6.28083027,0.986842099 L0.263736264,11.8815789 C-0.0879120879,12.5131579 -0.0879120879,13.3026316 0.263736264,13.9342105 C0.615384615,14.5657895 1.27960929,15 1.98290599,15 L14.017094,15 C14.7594627,15 15.3846154,14.6052632 15.7362637,13.9342105 C16.0879121,13.3026316 16.0879121,12.5131579 15.7362637,11.8815789 Z M7.41391941,4.34210527 C7.41391941,4.02631579 7.68742368,3.75 8,3.75 C8.31257632,3.75 8.54700855,3.98684211 8.58608059,4.30263157 L8.58608059,9.47368421 C8.58608059,9.78947369 8.31257632,10.0657895 8,10.0657895 C7.68742368,10.0657895 7.45299145,9.82894736 7.41391941,9.51315788 L7.41391941,4.34210527 Z M8,13.0263158 C7.57020756,13.0263158 7.21855921,12.6710526 7.21855921,12.2368421 C7.21855921,11.8026316 7.57020756,11.4473684 8,11.4473684 C8.42979244,11.4473684 8.78144079,11.8026316 8.78144079,12.2368421 C8.78144079,12.6710526 8.42979244,13.0263158 8,13.0263158 L8,13.0263158 Z" id="形状"></path>
                </g>
            </g>
        </g>
    </g>
</svg>