<?xml version="1.0" encoding="UTF-8"?>
<svg width="24px" height="24px" viewBox="0 0 24 24" version="1.1" xmlns="http://www.w3.org/2000/svg" xmlns:xlink="http://www.w3.org/1999/xlink">
    <!-- Generator: Sketch 60 (88103) - https://sketch.com -->
    <title>申请管理</title>
    <desc>Created with Sketch.</desc>
    <g id="页面-1" stroke="none" stroke-width="1" fill="none" fill-rule="evenodd">
        <g id="icon" transform="translate(-313.000000, -1855.000000)" fill="#F7B500" fill-rule="nonzero">
            <g id="申请管理" transform="translate(313.000000, 1855.000000)">
                <path d="M21.7799322,12.1959714 C21.6556852,12.0689006 21.4919051,12.0011295 21.3111822,12.0011295 C21.1361069,12.0011295 20.9666792,12.0745482 20.8424322,12.1959714 L19.6451431,13.3932605 L22.169616,15.9149096 L23.2963102,14.6442018 C23.423381,14.5199548 23.4911521,14.3505271 23.4911521,14.1782756 C23.4911521,14.0032003 23.4177334,13.8337726 23.2963102,13.7123494 L21.7799322,12.1959714 L21.7799322,12.1959714 Z M13.5259789,9.52748494 L6.24058735,9.52748494 C5.44145331,9.52748494 4.79480422,8.88083584 4.79480422,8.0845256 C4.79480422,7.28539157 5.44145331,6.64156627 6.24058735,6.64156627 L13.5259789,6.64156627 C14.325113,6.64156627 14.971762,7.28821536 14.971762,8.0845256 C14.971762,8.88365964 14.325113,9.52748494 13.5259789,9.52748494 Z M10.5977033,15.3332078 L6.24058735,15.3332078 C5.44145331,15.3332078 4.79480422,14.6865587 4.79480422,13.8902485 C4.79480422,13.0911145 5.44145331,12.4472892 6.24058735,12.4472892 L10.5977033,12.4472892 C11.3968373,12.4472892 12.0434864,13.0939383 12.0434864,13.8902485 C12.0434864,14.6893825 11.3968373,15.3332078 10.5977033,15.3332078 Z M16.8495858,0.00564759036 L3.5184488,0.00564759036 C1.5813253,0.00564759036 0.00847138554,1.57567771 0.00847138554,3.5128012 L0.00847138554,20.4471009 C0.00847138554,22.3842244 1.5813253,23.9542545 3.5184488,23.9542545 L8.36690512,23.9542545 L8.36690512,20.8113705 L20.362387,8.55045181 L20.362387,3.515625 C20.362387,1.57850151 18.7895331,0.00564759036 16.8495858,0.00564759036 L16.8495858,0.00564759036 Z M11.5323795,21.4326054 L11.5323795,23.9542545 L14.0625,23.9542545 L21.3733057,16.5728539 L18.8488328,14.0455572 L11.5323795,21.4326054 Z" id="形状"></path>
            </g>
        </g>
    </g>
</svg>