<?xml version="1.0" encoding="UTF-8"?>
<svg width="26px" height="24px" viewBox="0 0 26 24" version="1.1" xmlns="http://www.w3.org/2000/svg" xmlns:xlink="http://www.w3.org/1999/xlink">
    <!-- Generator: Sketch 60 (88103) - https://sketch.com -->
    <title>编组 5</title>
    <desc>Created with Sketch.</desc>
    <g id="页面-1" stroke="none" stroke-width="1" fill="none" fill-rule="evenodd">
        <g id="icon" transform="translate(-129.000000, -1850.000000)" fill-rule="nonzero">
            <g id="编组-5" transform="translate(129.000000, 1850.000000)">
                <path d="M22.8882213,3.08256881 C24.1763311,3.08256881 25.3090909,4.07456708 25.3090909,5.28440367 L25.3090909,21.5779817 C25.3090909,22.7878182 24.1763311,23.7798165 22.8882213,23.7798165 L19.8071146,23.7798165 C20.1307603,23.2129604 20.454406,22.5043902 20.4673518,21.7981651 L20.4673518,3.08256881 L22.8882213,3.08256881 Z M16.5059289,0 C17.6994345,0 18.7067194,1.05000001 18.7067194,2.20183486 L18.7067194,21.7981651 C18.7067194,22.95 17.6994345,24 16.5059289,24 L2.20079051,24 C1.0072849,24 0,22.95 0,21.7981651 L0,2.20183486 C0,1.04999998 1.0072849,0 2.20079051,0 L16.5059289,0 Z" id="形状" fill="#F7B500"></path>
                <path d="M8.72727273,16.8 L5.89090909,16.8 C5.16791815,16.8 4.58181818,17.3861 4.58181818,18.1090909 C4.58181818,18.8320819 5.16791815,19.4181818 5.89090909,19.4181818 L8.72727273,19.4181818 C9.45026367,19.4181818 10.0363636,18.8320819 10.0363636,18.1090909 C10.0363636,17.3861 9.45026367,16.8 8.72727273,16.8 Z" id="路径" fill="#FFFFFF"></path>
                <path d="M13.0909091,4.58181818 L5.89090909,4.58181818 C5.16791815,4.58181818 4.58181818,5.16791815 4.58181818,5.89090909 C4.58181818,6.61390004 5.16791815,7.2 5.89090909,7.2 L13.0909091,7.2 C13.8139,7.2 14.4,6.61390004 14.4,5.89090909 C14.4,5.16791815 13.8139,4.58181818 13.0909091,4.58181818 Z" id="路径" fill="#FFFFFF"></path>
                <path d="M13.0909091,10.6909091 L5.89090909,10.6909091 C5.16791815,10.6909091 4.58181818,11.2770091 4.58181818,12 C4.58181818,12.7229909 5.16791815,13.3090909 5.89090909,13.3090909 L13.0909091,13.3090909 C13.8139,13.3090909 14.4,12.7229909 14.4,12 C14.4,11.2770091 13.8139,10.6909091 13.0909091,10.6909091 Z" id="路径备份-15" fill="#FFFFFF"></path>
            </g>
        </g>
    </g>
</svg>