<?xml version="1.0" encoding="UTF-8"?>
<svg width="34px" height="34px" viewBox="0 0 34 34" version="1.1" xmlns="http://www.w3.org/2000/svg" xmlns:xlink="http://www.w3.org/1999/xlink">
    <!-- Generator: Sketch 60 (88103) - https://sketch.com -->
    <title>形状备份 10</title>
    <desc>Created with Sketch.</desc>
    <g id="页面-1" stroke="none" stroke-width="1" fill="none" fill-rule="evenodd">
        <g id="icon" transform="translate(-1780.000000, -723.000000)" fill="#F7B500" fill-rule="nonzero">
            <path d="M1797,723 C1787.61165,723 1780,730.611652 1780,740 C1780,749.388345 1787.61165,757 1797,757 C1806.38834,757 1814,749.388345 1814,740 C1814.00385,730.611652 1806.3922,723 1797,723 Z M1807.86828,734.280661 L1795.16549,746.983448 L1794.44865,747.700293 C1793.69327,748.455677 1792.46769,748.455677 1791.71231,747.700293 L1790.99546,746.983448 L1786.10859,742.096575 C1785.48039,741.468373 1785.5382,740.404669 1786.28588,739.8574 C1786.87939,739.425752 1787.708,739.522102 1788.22444,740.042393 L1793.07662,744.89458 L1805.80639,732.164814 C1806.43459,731.536612 1807.4983,731.594422 1808.04556,732.342098 C1808.48492,732.935615 1808.38472,733.764225 1807.86828,734.280661 Z" id="形状备份-10"></path>
        </g>
    </g>
</svg>